<?xml version="1.0" encoding="utf-8"?>

<svg version="1.1" xmlns="http://www.w3.org/2000/svg" height="200px" width="200px" viewBox="0 0 400 400" fill="#f7f7f7">
        <g transform="translate(0,980) scale(0.1,-0.1)">
                <path d="M450.9,9589.5l-5.7-4.9l-1-40.6l-1-40.6l-16.3-33.5l-16.3-33.5l-0.6-164.5c-0.6-179-0.8-173.5,10.8-186.1
		c12.4-13.5,5.1-12.9,146.9-12.9h128.6l9.2,5.5c17.3,10.6,37.8,33.3,46.3,51.8l4.7,10.6v150c0,105.5-0.8,152-2.2,156.7
		c-1.4,3.9-7.1,14.7-12.9,24.1l-10.4,17.3l-1,48.6l-1,48.8l-5.1,3.9c-4.9,3.9-10.2,4.1-136.1,4.1h-131L450.9,9589.5z M527.4,9546.8
		l0.6-26.1l-30.2,0.6l-30.2,0.6l-0.6,24.9c-0.4,22.2-0.2,24.9,3.1,25.7c2,0.6,15.7,0.8,30.2,0.6l26.5-0.2L527.4,9546.8z
		 M600.3,9571.5c0.4-1.4,1-13.5,1.4-26.5l0.6-24.1h-26.9h-27.1v25.1c0,13.9,0.6,25.9,1.4,26.5c0.6,0.8,12.2,1.4,25.5,1.4
		C592.7,9574,599.7,9573.3,600.3,9571.5z M653.9,9547l0.6-26.1h-15.5h-15.3v25.1c0,13.9,0.6,25.9,1.4,26.7c0.8,0.8,7.6,1.2,14.9,0.8
		l13.3-0.6L653.9,9547z M707.4,9547.4v-26.5h-16.3h-16.3v25.5v25.3l12.9,0.8c6.9,0.4,14.3,0.8,16.3,1
		C707,9574,707.4,9571.5,707.4,9547.4z M527.8,9496c0-1.2-1.8-9.4-4.3-17.8l-4.3-15.3l4.5-3.7c4.5-3.7,10.8-3.5,15.1,0.6
		c1.2,1,4.1,9.8,6.5,19.6l4.5,18l26.9,0.6l26.9,0.6l-1.6-8.8c-1-4.9-1.8-13.9-1.8-20c0-11.2,0-11.2,6.5-11.8
		c8.6-0.8,11.8,4.3,14.7,23.5c1.2,8,2.2,15.1,2.2,15.7s18.8,1.2,41.8,1.2h41.8v-16.7c0-10.6-1.6-22.4-4.3-32.4l-4.3-15.9l-79-0.6
		c-60.4-0.4-80-1.2-82.2-3.3c-2.7-2-4.3-1.8-9.2,0.8c-5.1,3.1-6.5,3.1-11.8,0.6c-4.5-2-6.3-4.7-6.7-9c-1.2-10.2,9-14.3,20.4-8.4
		c4.1,2,5.7,2.2,6.3,0.6c0.6-1.8,22.4-2.7,81.8-3.1l80.8-0.6l-0.4-153.1l-0.6-153.3l-5.7-4.9l-5.7-4.9H565.4H443.7l-5.9,5.9
		l-5.9,5.9v152.2v152.2h22.9c24.5,0,30.2,2,30.2,11s-2.4,9.8-27.3,10.2c-13.1,0-23.7,0.6-23.7,1.2s7.1,15.5,15.7,33.1l15.9,32.2
		h31.2C519.3,9498.5,527.8,9497.8,527.8,9496z M732.9,9440.7c2.9-7.6,3.1-24.1,2.7-152.7L735,9144l-5.9-8.4
		c-3.3-4.7-6.7-8.6-7.8-8.6c-1,0-1.4,63.3-1,154.7c0.4,124.1,1.2,155.9,3.3,162C727,9452.7,728.4,9452.3,732.9,9440.7z" />
                <path d="M552.7,9388c-4.9-0.8-14.7-4.9-21.8-9c-9.4-5.1-15.3-7.1-22-7.1c-25.5,0-45.3-16.9-54.5-46.5c-5.3-17.1-5.3-26.1,0-29
		s11.6-1,14.3,4.1c1,2,3.1,8.6,4.3,14.7c4.7,22.4,20,36.3,40.2,36.3c8.8,0,12.7,1.2,20,6.1c12.2,8.6,24.7,12.7,33.5,11.2
		c3.9-0.8,13.1-4.9,20.4-9.2c12.2-7.3,14.3-8,26.7-7.6c11.8,0.4,14.3-0.2,20.8-5.1c10.8-8.4,15.9-16.7,20.6-33.9
		c4.7-16.3,8.2-19.8,17.3-16.5c4.5,1.8,4.7,2.7,3.7,12.7c-3.9,36.9-33.7,67.1-62.2,63.3c-6.3-0.8-9.6-0.2-14.1,2.9
		C583.5,9387,568.4,9391.1,552.7,9388z" />
                <path d="M552.3,9356.4c-1.6-0.6-8.6-3.7-15.3-6.9c-6.7-3.3-16.7-7.3-22-9.2c-16.3-5.7-26.7-17.3-30.8-34.5
		c-0.8-3.5-6.3-11.2-12.2-17.6c-12-13.1-15.5-22.2-15.5-40.4c0-18,6.5-31.6,19.6-40.8c4.5-3.1,6.9-6.7,8-12
		c1.6-9.8,9.6-23.7,15.9-27.8c2.7-1.6,9-4.3,13.9-5.5c4.9-1.4,15.3-5.7,23.1-9.6c13.5-6.7,15.3-7.1,29.2-6.3
		c12,0.8,16.7,2.2,25.1,7.3c5.7,3.5,15.3,7.8,21.2,9.4c18,4.5,28,14.3,32,31c1.6,6.7,4.9,12.7,10.2,18.2c21,22,18.6,62.2-5.1,78.4
		c-7.3,5.1-9.4,7.8-9.4,12c0,12.2-11.6,19-19.4,11.4c-3.5-3.5-3.1-8.6,1.4-22.9c1.4-5.1,3.5-6.9,8-8c3.5-0.6,6.9-3.3,8.8-6.5
		c1.4-2.9,4.3-8,6.1-11.4c1.8-3.3,3.3-10.6,3.3-16.3c0-11.6-4.5-20.4-15.1-29.6c-5.3-4.7-7.1-8.4-8.4-15.9
		c-1.8-13.1-5.1-17.6-15.5-20.6c-4.9-1.4-15.3-5.9-23.3-10c-17.6-8.8-27.3-9.4-40.6-1.8c-5.1,2.9-14.3,6.5-20,8.4
		c-14.9,4.3-19.6,8.2-21,17.1c-2,11.8-4.9,17.1-13.5,24.5c-10.4,9-14.1,16.3-14.1,28c0,11.6,5.9,23.5,15.3,31
		c5.5,4.5,8.2,8.8,11.2,19.2c4.9,15.9,7.8,19,24.7,25.1c7.1,2.7,16.3,6.7,20.2,9.2c9.6,5.7,19.4,5.5,31.6-1
		c5.5-3.1,12.4-5.7,15.3-5.9c2.9-0.2,8.2-1.8,11.8-3.9c5.3-2.7,7.3-2.9,11.2-1c6.7,3.7,7.6,6.1,4.5,12.2c-2,3.9-5.5,6.1-12.2,7.8
		c-5.1,1.2-15.3,5.5-22.7,9.4C575,9357.4,562.3,9359.5,552.3,9356.4z" />
                <path d="M535.6,9306.4c-4.7-2.7-4.7-9.6-0.2-16.1c7.6-11,14.7-13.1,19.8-5.9c2.7,3.9,2.7,5.1,0.2,10.2
		c-2.9,5.3-12.2,14.1-15.1,14.1C539.7,9308.7,537.4,9307.6,535.6,9306.4z" />
                <path
                        d="M581.9,9300.3c-7.3-9-6.5-16.9,2.2-17.8c10.6-1,21.4,14.9,14.7,21.6C594.6,9308.5,587.6,9306.8,581.9,9300.3z" />
                <path d="M517.6,9267.2c-8-2.7-10.4-9.4-5.9-15.1c2.2-2.4,5.3-2.9,14.3-2c15.1,1.6,18,3.1,19.6,9.2
		C548,9268.9,534.2,9272.9,517.6,9267.2z" />
                <path d="M589.9,9268.2c-1.2-0.8-2.9-3.5-3.7-5.9c-1-3.3-0.2-5.3,3.3-7.6c6.7-4.3,22.7-6.1,28-3.5c6.5,3.7,5.5,11.6-1.8,15.5
		C609.5,9270.1,593.7,9270.9,589.9,9268.2z" />
                <path d="M540.1,9233.1c-6.7-7.3-12.7-19.4-11.8-24.1c0.8-4.1,9.6-8.8,13.3-6.9c4.5,2.7,16.9,21.6,16.9,26.3
		c0,5.1-5.1,10.8-9.6,10.8C547.2,9239.3,543.3,9236.6,540.1,9233.1z" />
                <path d="M585.4,9236.8c-3.5-3.5-3.1-8.8,1.6-17.6c6.3-11.8,9.2-14.7,14.9-14.7c10.2,0,9.6,14.5-0.8,27.1
		C594.8,9239.5,589.7,9241.1,585.4,9236.8z" />
                <path d="M662.7,9205.4c-2.4-3.1-4.3-7.6-4.3-10c0-13.7-13.3-33.9-26.9-41c-3.1-1.6-10.4-2.9-16.5-2.9c-9.4,0-12.9-1.2-23.3-8
		c-23.3-14.9-34.3-15.5-53.7-2.9c-8.4,5.5-14.1,7.8-23.5,8.8c-22.7,2.4-35.3,13.1-41.8,34.9c-4.3,14.5-7.1,17.1-15.1,14.1
		c-6.5-2.4-7.6-8.6-3.9-21c8.2-28.2,24.9-43.1,52-46.5c10.2-1.2,15.9-3.3,21-7.1c10-7.6,20.4-10.8,34.9-11c14.5,0,24.3,3.1,38.6,12
		c7.3,4.7,12.4,6.3,19.2,6.3c16.9,0.2,38.4,13.3,47.8,29.2c5.9,9.8,11.6,28.2,11.6,36.5c0,5.5-6.1,13.9-10,13.9
		C667.8,9210.7,665,9208.2,662.7,9205.4z" />
                <path d="M3326.9,9458.5c-10.2-1.8-17.6-6.3-23.1-14.1c-3.5-4.9-5.5-5.7-18.8-6.7c-18.2-1.4-35.5-7.8-46.1-16.9
		c-8.2-6.9-15.5-20.8-13.7-25.9c0.6-1.4-2.7-5.3-7.8-8.8c-4.9-3.5-10.4-9.6-12.4-13.7c-3.1-6.5-4.3-7.6-10.6-7.6
		c-14.5,0-30.2-12-32.9-24.7c-0.8-4.1-4.1-7.8-10.6-11.8c-28.6-18.4-34.7-36.9-22.7-70c21.6-58.8,57.1-104.5,96.3-123.7
		c40-19.4,105.5-25.7,163.9-15.7c23.3,4.1,34.7,7.8,54.9,17.8c40.2,19.8,70,56.1,92.9,112.9c13.9,34.5,14.3,42.9,4.1,59.4
		c-5.1,8.4-30.4,29.2-40.2,33.3c-5.3,2.2-6.5,3.9-6.5,8.8c0,8-4.5,16.3-12.4,22.9c-3.5,3.1-6.1,5.7-5.7,5.9s2.7,1.4,4.9,2.7
		s5.3,4.7,6.7,7.8c9.6,19.2-17.6,45.5-49.2,47.8c-12.2,0.8-14.3,1.6-18,6.9c-8.8,12-30,14.9-52.4,6.9c-8.4-3.1-9.2-2.9-14.3,0.8
		C3345.4,9458.3,3336.9,9460.3,3326.9,9458.5z M3339.3,9438.5c0.6-0.8-1-5.7-3.5-10.6c-3.9-7.8-5.3-9-10.4-8.6
		c-9.6,0.6-10.4,3.5-4.1,12.7c4.5,6.1,7.3,8.4,11.4,8.4C3335.8,9440.3,3338.7,9439.5,3339.3,9438.5z M3403.4,9433.8
		c4.1-3.5,2.9-5.3-5.1-8c-12.4-3.9-21.6-9.2-29.8-16.9c-5.9-5.5-9.6-7.3-14.7-7.3c-5.3,0-8-1.2-10.4-5.1c-3.1-4.7-3.1-5.5,0.2-10.4
		c2.7-4.1,4.7-5.1,8.8-4.3c4.3,0.8,6.7-0.2,10.6-4.9c4.5-5.1,6.9-6.1,19.6-7.1c18-1.6,34.7,2.7,43.3,11.4l6.1,5.9l8.2-3.5l8-3.3
		l-13.5-6.7c-7.3-3.5-16.1-9.2-19.6-12.2l-6.1-5.7l-8.2,4.1c-6.9,3.3-12.4,3.9-36.7,3.9c-31.4,0-42-2.4-52.2-12.2l-5.5-5.3l-8.2,9
		c-10.4,11.2-24.7,18.4-38.6,19.6c-13.5,1.2-19.4-2.4-22.9-13.7c-2.2-7.8-2.9-8.4-9.6-8.4c-6.5,0-7.1,0.4-5.7,4.7
		c1.8,5.7,8.8,15.7,11,15.7c1,0,5.5,3.7,10.4,8.4c7.8,7.6,8.4,8.6,6.1,13.5c-2,4.3-1.8,5.9,1.2,9.2c5.3,5.7,16.1,11,29,13.7
		c13.9,2.9,17.3,0.6,10.4-6.9c-4.5-4.9-13.9-9-28.6-12.7c-13.9-3.5-8.6-18.6,5.7-15.9c17.6,3.3,33.9,9.8,39.2,15.5
		c5.3,5.9,5.7,5.9,14.5,3.7c13.1-3.5,19.6-0.6,30,13.1c9.8,12.9,16.5,17.1,32,21C3392.6,9437.9,3398.7,9437.4,3403.4,9433.8z
		 M3449.9,9415.8c6.1-2.4,17.1-12.2,17.1-15.5c0-3.3-11.2-3.9-19.2-0.8c-5.5,2-8,5.7-10.2,14.9
		C3436.2,9420.7,3436.7,9420.7,3449.9,9415.8z M3416,9405.2c0-5.5-5.3-12.4-11.6-15.7c-5.1-2.7-24.3-3.1-25.9-0.4
		c-1.8,2.9,8,10.4,20.4,15.5C3413.8,9410.7,3416,9410.9,3416,9405.2z M3469.1,9357.6c3.9-4.1,4.9-7.6,4.9-16.7l0.2-11.6l8.2-1.6
		c9-2,17.3-8.6,17.3-13.9c0-4.1-7.6-14.3-10.4-14.3c-1.2,0-3.1,2.9-4.3,6.3c-3.7,10.6-17.1,12.2-20.8,2.4c-1-2.4,0.2-5.1,3.7-8.2
		c2.9-2.4,5.3-4.9,5.3-5.5s-4.1-2.2-9-3.5c-9.6-2.4-17.6-8.4-17.6-13.1c0-1.6,2.2-4.5,4.9-6.3c4.5-2.9,6.1-2.9,17.3,0
		c17.1,4.3,36.3,12.4,44.7,18.8c6.7,5.3,7.1,5.3,9.8,1.8c3.7-4.9,3.7-7.3,0-12.4c-6.3-8.8-54.1-25.3-97.1-33.5
		c-30.4-5.9-39-8.4-41.6-12.7c-2.9-4.7,3.7-11.8,10.8-11.8c12,0,86.3,16.7,105.9,23.9c4.9,1.6,9.4,2.7,10,2
		c2.4-2.4-6.5-13.7-11-13.7c-2.4,0-11.6-2.2-20.4-4.9c-43.9-13.9-102.7-25.3-138-27.1c-25.7-1.4-30.8-3.3-29.6-11.6
		c0.4-2.2,3.1-5.3,5.9-6.7c11-5.3,82.4,4.7,141.2,19.6c16.5,4.3,30,7.3,30,6.9c0-0.4-1.2-3.3-2.9-6.3c-2.7-5.1-5.9-6.3-41.4-15.3
		c-52.4-13.3-69.8-15.9-108-17.1c-38-1.2-70,1.4-106.9,9c-40.6,8.2-42.7,9.6-60.8,40.4c-8.2,13.9-22.7,47.3-25.7,58.8
		c-1,4.7,0.6,11.4,4.1,15.5c0.2,0.4,3.5-2.7,6.9-6.5c15.3-17.6,67.6-29.4,145.1-33.3c26.5-1.2,28-1.2,32.2,3.1
		c5.3,5.3,5.5,8.8,0.6,13.1c-2.7,2.4-10,3.7-30,4.5c-14.7,0.8-28.6,1.6-31,1.8c-9.6,0.6-2.9,4.3,8,4.5c14.7,0.2,18,1.6,18,7.1
		c0,8-5.7,12-16.5,12c-7.8,0-13.7-2-27.6-9.2c-9.6-5.1-19.8-9.2-22.4-9.2c-12,0-34.1,6.7-38.8,11.6c-4.1,4.3-5.9,4.9-12.7,3.7
		c-7.3-1.2-8.2-0.8-9,3.5c-1.4,8,0.2,11,7.6,14.5c6.9,3.3,9.6,9.8,5.1,12.7c-6.1,3.9,3.7,17.3,12.4,17.3c6.3,0,6.3-3.7-0.2-12.4
		c-8.8-12.2-8.6-23.9,0.4-31.4c6.3-5.3,7.3-5.5,25.1-4.5c20.4,1,38,5.7,43.3,11.4c3.5,3.5,5.1,3.7,21.2,1.6
		c15.9-2,18.4-1.8,25.7,1.8c8,3.9,8.2,3.9,16.9,0.2c4.9-2.2,15.7-4.3,24.3-4.9c12.9-0.8,18-0.2,30,3.9c11.4,3.7,14.9,4.3,16.9,2.2
		c6.3-6.7,30.6-7.1,42.9-0.8c11.4,6.3,22.4,27.3,19.6,37.6c-0.8,2.4-1.8,6.1-2.2,8.2C3458.1,9364.4,3463.6,9363.6,3469.1,9357.6z
		 M3269.1,9352.5c9-4.7,24.5-18.6,24.5-22c0-3.1-6.7-3.1-17.3-0.2c-10.2,2.9-21.4,13.9-21.4,21
		C3254.8,9357.9,3258.3,9358.1,3269.1,9352.5z M3442.6,9349.5c0-3.1-1.4-8-3.1-11.2c-5.3-10.2-23.5-16.7-23.5-8.4
		c0,3.9,20.6,24.7,24.3,24.7C3441.5,9354.6,3442.6,9352.3,3442.6,9349.5z M3391.1,9342.5c5.9-3.1,5.1-4.3-7.1-10.4
		c-7.6-3.9-13.1-5.1-24.1-5.1c-15.5,0-33.7,5.5-33.7,10.2c0,2.7,7.3,5.7,18.4,8C3353.8,9346.8,3386.4,9345,3391.1,9342.5z
		 M3241.8,9328.7c3.7-3.3,6.9-6.3,6.9-7.1c0-1.6-26.3-7.8-33.7-7.8c-12.7,0-5.5,12.9,10,18C3234.2,9334.6,3234,9334.8,3241.8,9328.7
		z M3453.8,9167.6c-9.4-7.1-33.9-17.1-52.2-21c-57.8-12.2-129-9-168,7.8c-5.5,2.4-9.6,4.9-9,5.3c0.6,0.6,12.4-0.8,26.3-3.1
		c62-10.2,132-6.1,192.7,11C3456.9,9171.5,3458.7,9171.5,3453.8,9167.6z" />
                <path d="M3301.1,9385.6c-2-2-3.5-5.1-3.5-6.9c0-3.9,6.5-9.8,10.8-9.8c3.9,0,11.6,6.9,11.6,10.2c0,3.5-8,10.2-11.8,10.2
		C3306,9389.3,3303,9387.6,3301.1,9385.6z" />
                <path
                        d="M3386.4,9302.1c-1.8-1.6-3.1-5.5-2.7-8.4c0.4-4.3,2.2-5.9,8.2-7.6c15.7-4.3,11.6-9.2-8-9.2c-6.9,0-14.9-0.8-17.8-2
		c-6.9-2.4-10.2-9-7.3-14.3c1.8-3.7,4.3-4.1,20-4.1c19.4,0.2,35.1,2.9,37.6,6.7c2.7,4.3,1.8,10-1.8,12.9c-3.1,2.2-3.3,2.7-0.6,3.5
		c23.5,6.5,32.7,11.4,32.7,17.8c0,7.1-5.1,8.8-15.7,5.3c-11.8-4.1-22-4.1-33.1-0.4C3390.5,9305,3389.3,9305,3386.4,9302.1z" />
                <path
                        d="M3317.3,9300.3c-4.3-4.1-4.3-12.2,0-13.9c9.4-3.7,17.1,0.2,17.1,8.4C3334.4,9302.5,3323.2,9306.2,3317.3,9300.3z" />
                <path d="M3347.1,9295c-1.4-1.4-2.4-5.1-2.4-8.2c0-4.3,1.2-5.9,4.9-6.9c10.8-2.7,18.2,4.7,13.5,13.5
		C3360.5,9298.1,3351.1,9299.1,3347.1,9295z" />
                <path d="M3168.3,9253.4c-9.6-9.4,0.4-16.1,37.1-24.3c27.6-6.3,30.2-6.3,34.5,0.2c3.3,5.3,3.3,5.5-0.8,9c-2.4,1.8-12.4,5.1-22.2,6.9
		c-10,2-23.5,5.3-30.4,7.6C3171.5,9257.4,3172.2,9257.4,3168.3,9253.4z" />
                <path d="M3331.3,9230.7c-10.4-2.7-13.1-13.9-3.9-16.1c7.3-1.8,31.2,0.6,34.7,3.5c3.5,2.9,3.7,8.4,0.4,11.6
		C3360.1,9232.1,3339.7,9232.7,3331.3,9230.7z" />
                <path d="M3191.8,9215c-6.9-8.4,3.1-15.5,30-20.8c18.6-3.9,21.8-3.3,25.3,4.3c3.3,7.3,1,9-21.2,13.5
		C3194.6,9218.5,3194.6,9218.5,3191.8,9215z" />
                <path
                        d="M1998.1,9454c-40.4-4.9-73.1-13.5-88.2-23.1c-16.9-10.8-16.7-10.4-18-68.6l-1-51l-8.2-28.6l-8.2-28.6l-0.6-137.6
		c-0.6-154.9-1-151.2,13.9-168.2c13.3-14.9,36.9-24.5,74.5-30c25.3-3.7,87.8-4.9,116.9-2.2c52.7,4.9,84.3,15.3,102.2,33.5
		c14.9,14.9,14.5,10.4,14.5,162.4v135.9l-8.2,34.3l-8.2,34.5v47.3c0,46.1-0.2,47.8-4.7,54.5c-9.2,13.5-26.7,21.6-64.7,29.8
		c-19.2,3.9-30.8,5.1-64.3,5.7C2023.6,9454.6,2001.9,9454.4,1998.1,9454z M2095,9429.5c35.7-5.1,62.2-16.3,62.2-26.5
		c0-1.8-2.7-5.9-6.1-9c-20.6-19.2-132.7-26.7-196.5-13.3c-17.8,3.7-35.1,11.6-38.2,17.3c-5.7,10.6,12.4,21.8,46.5,29
		C2000.9,9434.8,2051.3,9435.6,2095,9429.5z M1919.5,9369.1c4.9-2.2,5.1-3.1,5.1-19.4c0-17.8-1.2-19.8-8.2-12.9
		c-3.3,3.3-4.1,6.7-4.1,19.4c0,8.4,0.4,15.3,1,15.3C1913.8,9371.6,1916.6,9370.5,1919.5,9369.1z M2158.9,9355.4
		c0.4-15.1,0.2-16.1-4.5-19.4c-2.9-1.8-5.7-3.3-6.3-3.3s-1,7.6-1,16.9c0,17.1,1.8,21.8,8.2,21.8
		C2157.7,9371.6,2158.5,9368.3,2158.9,9355.4z M1972.6,9356.3c24.9-3.3,95.9-4.1,117.3-1.2c7.3,1,18,2.4,23.7,3.3l10.6,1.4l1.4-8.2
		c2.9-16.7-0.2-18.6-34.7-22.7c-35.1-4.3-126.9-1-142.4,5.1c-2.7,1-3.5,3.9-3.5,13.3c0,8.4,0.8,12,2.7,12
		C1948.9,9359.3,1960.3,9357.9,1972.6,9356.3z M1922.4,9308.5c4.7-3.7,4.7-3.7,1.4-16.3c-1.8-6.9-3.3-16.1-3.3-20v-7.3l10.8,1.4
		c28.6,3.7,36.1,3.9,41.2,0.4c3.1-2,5.1-5.3,5.1-8c0-11.4,1-11.6,55.1-12.4c57.8-0.8,94.3-5.9,112-15.5c6.1-3.3,5.3-5.1-3.7-8
		c-40-11.8-147.3-13.5-200.2-2.9c-24.5,4.7-24.3,7.6,1,15.1c8,2.4,15.5,5.3,16.9,6.3c3.7,3.1,3.1,8.8-1.8,13.1
		c-4.1,3.7-4.5,3.7-21.8-0.8c-9.8-2.7-22.7-7.3-28.8-10.6l-10.8-5.9l1.2,8.6c2.2,13.7,13.3,58.6,15.5,62.9
		C1915,9313.2,1916.2,9313.2,1922.4,9308.5z M2166.4,9279.7c4.1-16.9,7.1-33.1,6.7-35.9l-0.6-5.3l-9.6,8.4
		c-10.8,9.6-12.7,14.3-15.9,40c-2,16.5-2,18.4,1.2,20.8C2157.1,9314.2,2158.5,9312,2166.4,9279.7z M2175.2,9124.2l-0.6-88.4
		l-139.2-0.6l-139.4-0.4v88c0,73.7,0.4,87.8,2.9,86.9c10.4-4.1,33.9-10,51.2-13.1c16.3-2.9,32.9-3.5,82.7-3.7
		c69,0,92.2,2.4,123.5,13.3c9,3.1,16.9,5.7,18,5.7C2175,9212.2,2175.4,9172.6,2175.2,9124.2z M2140.5,9001.8
		c-0.8-6.9-2.4-11.4-4.9-13.3c-6.1-4.5-28.8-10.8-49.8-13.9c-15.1-2.2-20.2-3.9-22.9-7.3c-4.3-4.9-2-11,4.5-13.1
		c5.3-1.6,43.9,4.3,60,9.4c25.3,7.8,33.9,17.3,33.9,37.1v11.6h7.3h7.6l-1-17.3c-0.8-15.1-1.6-18.6-6.9-25.7
		c-16.7-23.7-67.1-34.1-152.9-31.8c-57.8,1.6-84.3,6.5-103.3,19.2c-11.6,7.6-16.1,18.8-16.1,39v16.7h122.7h122.9L2140.5,9001.8z" />
                <path d="M2097.7,9415.4c-3.3-3.5-62-5.3-95.1-3.1c-31,2-36.1,2-38.8-0.6c-5.1-5.3-1.6-13.1,7.3-15.7c35.5-10,128.4-6.5,141.4,5.3
		c4.7,4.3,4.9,7.8,0.6,11.8C2110.1,9416.3,2099.9,9417.7,2097.7,9415.4z" />
                <path
                        d="M1939.9,9161.2c-10.6-3.1-19-13.7-21.6-27.3c-4.3-23.1,0.6-50.2,10.6-59.4c5.9-5.3,21.6-8.8,31.2-6.5
		c21.2,4.7,28.6,18.6,27.6,52c-0.8,18.8-1.4,23.1-5.5,28.6C1973.6,9160.5,1955.8,9165.9,1939.9,9161.2z M1959.3,9139.9l6.1-3.3
		v-20.6c0-23.7-2.2-28.2-13.5-28.2c-10.4,0-13.1,5.5-13.1,27.8c0,18,0.2,19.2,5.3,23.1C1950.7,9143.8,1951.5,9143.8,1959.3,9139.9z" />
                <path d="M2028.7,9159.7c-2.9-2.4-8.4-15.9-17.6-42.9c-7.1-21.6-13.1-41.2-13.1-43.3c0-4.9,7.1-9,13.3-7.3c2.7,0.6,6.1,4.1,8,8.2
		c3.5,7.3,8.8,9.4,23.7,9.4c7.1,0,8-0.6,11-8.2c3.9-9.8,11.4-12.7,17.6-7.1c2.2,2,4.1,5.1,4.1,6.9c0,6.1-26.3,80.2-29.8,84.1
		C2041.5,9164.4,2034.6,9164.4,2028.7,9159.7z M2041.1,9115.4l3.3-11.2h-6.7c-3.9,0-6.9,0.8-6.9,2c0,3.7,4.9,20.4,6.1,20.4
		C2037.5,9126.7,2039.3,9121.6,2041.1,9115.4z" />
                <path d="M2075.6,9159.3c-8.8-8.8-3.1-16.5,12.4-16.9c9-0.4,11.2-1.2,12.4-4.5c0.6-2.2,1.2-18.4,1.4-35.9l0.2-32l6.1-2.4
		c5.3-2.2,6.7-2,10.2,1c3.7,3.5,4.1,6.5,4.1,37.8v34.3l11.2,0.8c15.9,1.4,21.8,9.4,13.3,18c-3.7,3.7-6.7,4.1-35.7,4.1
		C2082.4,9163.4,2079.3,9163,2075.6,9159.3z" />
                <path d="M521.8,9155.3" />
                <path d="M74.5,9149.2" />
                <path d="M660.8,7915.4c-9.8-6.3-13.7-11.4-18.4-25.9c-14.1-42.9-0.8-92.2,30-110.2c19.2-11.2,49.2-5.3,62.9,12.7
		c15.3,20.2,14.9,50.8-1.6,83.5C717.5,7907.2,680.4,7927.6,660.8,7915.4z M686.1,7894.8c12-5.7,28.4-24.1,34.1-38.6
		c6.3-15.9,6.3-39,0.2-48.8l-4.5-7.1l-2,5.5c-1.2,3.1-5.5,15.9-9.6,28.6c-10,31.4-11,33.9-15.5,36.3c-5.1,2.7-13.9-2.7-13.9-8.4
		c0-2.2,4.3-16.1,9.4-31c5.1-14.9,9.8-29.6,10.4-32.7c1-5.5,0.8-5.5-5.7-3.7c-19.6,5.7-34.7,37.6-31.6,66.7
		c1.6,15.1,5.5,25.9,11.8,32.7C674.4,7900.1,674.7,7900.1,686.1,7894.8z" />
                <path d="M280.2,7914.4c-7.1-7.3-3.5-13.3,14.1-22c16.5-8.2,45.9-28.4,58.8-40.2l12-11l-11-2.7c-5.9-1.4-15.7-5.1-21.6-8
		c-18.4-9-19-17.3-1.8-27.1c32.4-18.4,67.3-19.2,86.3-1.8c4.5,3.9,4.5,3.9,13.9-2.7l9.4-6.7l-14.9-4.3c-19-5.5-33.9-13.1-37.8-19.2
		c-3.3-4.7-3.1-5.1,3.5-10.4c8.6-7.3,27.3-14.1,46.9-17.1c14.1-2.2,15.1-2.7,10.8-4.9c-2.4-1.4-5.9-4.9-7.8-7.6
		c-3.1-4.7-3.1-5.5-0.2-10c2.7-3.9,7.1-5.9,21.2-9c9.8-2.4,22.4-4.9,27.8-5.7c9.6-1.2,9.8-1.4,5.1-4.5c-13.1-8.6-13.5-17.3-1-22.9
		c12.7-5.5,39.2-12,55.1-13.7l14.1-1.2l-7.6-4.3c-9.4-5.3-11.6-12.7-5.3-18c2.7-2,12.2-6.1,21.2-9c21.4-7.1,55.5-8,78.2-2.2
		c13.9,3.7,15.1,3.7,21.4,0.2c7.8-3.9,44.5-28.8,66.1-44.7c19.2-14.3,19-14.1,24.5-10.4c3.5,2.2,5.1,5.3,5.1,9.2
		c0,7.3-2.7,9.6-51,42l-35.7,24.3l-1.2,20.4c-2,31-11.2,53.3-32.2,76.3c-10.8,12-20.2,15.9-22,8.8c-1.6-6.5-3.5-5.3-9.6,5.9
		c-7.8,14.3-28.8,40.2-33.7,41.8c-5.1,1.6-12.4-2-12.4-6.1c0-1.6-0.8-3.1-2-3.1c-1,0-2,0.8-2,1.8c0,3.9-20.6,28.4-30,35.3
		c-13.7,10.2-19,10.8-23.1,2l-3.3-6.7l-9.6,12c-9.8,12.7-30.4,31.4-36.7,33.7c-4.9,1.8-11.6-1.8-11.6-6.1c0-2-5.5,2.4-13.7,11.4
		c-13.7,14.9-24.1,21.6-30,19.4c-1.8-0.6-3.3-1.8-3.3-2.7c0-0.6-0.8-2.4-1.8-4.1c-1.4-2.2-3.5-1.4-9.6,3.5
		c-17.8,14.3-49,21.6-53.9,12.9c-1-2.2-2-5.9-2-8.4v-4.5l-7.6,4.5C297.1,7915.8,285.7,7919.9,280.2,7914.4z M370.6,7882.7
		c4.3-2,10.2-6.7,13.1-10c4.9-5.9,13.7-25.9,13.7-31.2c0-3.1-15.7,11.8-28.8,27.6C354.4,7885.8,355.1,7890.7,370.6,7882.7z
		 M426.7,7857.6c6.9-8.6,17.8-29.6,20.2-39.8c1-4.5,0.4-4.3-7.3,2.2c-12,10-23.9,27.6-25.3,37.8
		C412.6,7869.5,417.1,7869.3,426.7,7857.6z M480,7829.3c9.6-11,37.8-63.7,37.8-70.4c-0.2-5.7-21.6,18-36.3,40
		c-12.2,18.2-18.2,32.4-15.9,38.2C467.3,7841.9,470.2,7840.3,480,7829.3z M393.2,7818.5c7.8-4.1,7.8-6.3-0.2-8
		c-14.5-2.9-44.7,0.6-44.7,5.3C348.3,7821.3,383.8,7823.4,393.2,7818.5z M538.3,7798.7c3.5-4.9,8.6-13.1,11.2-18.2
		c4.5-9.2,27.3-66.3,27.3-68.8c0-3.9-18.2,17.3-26.7,31c-18,29.2-29.8,64.5-21.4,64.5C530.6,7807.2,534.9,7803.4,538.3,7798.7z
		 M474.4,7768.1c3.7-2.2,6.3-4.5,5.7-5.1c-2.7-2.7-30-4.3-42-2.4c-21,3.3-22.2,3.9-14.1,7.3C441,7775.2,462.4,7775.2,474.4,7768.1z
		 M602.6,7740.5c4.1-8.2,10.8-25.7,15.3-38.8l8-23.9l-8.2,8c-14.3,13.9-34.7,58.4-34.7,75.1l0.2,8.6l6.1-7.1
		C592.8,7758.5,598.7,7748.5,602.6,7740.5z M517.9,7733.4c20.2-10.6,18.8-12.7-7.6-11c-28.8,1.6-41.6,3.3-41.6,5.1
		c0,2.9,7.6,8.6,13.5,10.4C494.4,7741.3,504.7,7740.1,517.9,7733.4z M649.5,7705.2c4.7-9.6,9-26.1,9-34.7v-7.1l-5.3,7.8
		c-7.3,11-15.1,32.9-15.1,42.9v8.6l4.1-5.1C644.4,7714.6,647.7,7709.1,649.5,7705.2z M556.1,7697.9c5.5-1.8,12.7-5.3,15.9-8l5.9-4.7
		l-13.7-1.4c-13.1-1.4-34.3,0.8-44.9,4.9c-4.5,1.6-4.5,1.6,1,5.3c5.3,3.5,15.1,6.5,22,6.9C544.2,7701.1,550.4,7699.7,556.1,7697.9z
		 M631.6,7653.8c5.3-2.4,8.2-4.9,6.9-6.1c-3.3-3.3-35.3-4.1-49.4-1.2l-13.3,2.9l7.1,3.9c3.9,2,9.4,4.5,12.2,5.3
		C603,7661.1,621.8,7658.7,631.6,7653.8z" />
                <path d="M176.9,7764c-8.4-4.5-10.6-11.2-9.2-27.1c1.4-17.8,9.2-34.9,21.8-49l9.4-10.2l-14.7-5.5c-16.3-6.3-27.8-15.5-27.8-22.2
		c0-7.1,7.3-20.8,15.9-29.4c8.8-8.8,24.1-16.7,36.5-18.6c7.6-1,8.4-1.6,6.7-4.9c-5.3-10,0.4-21.8,14.3-29.4
		c10-5.5,35.9-10.6,43.9-8.6c4.1,1,4.9,0.2,6.1-5.1c3.7-16.9,28-29.6,53.5-28l13.1,0.8l-1.4-5.1c-4.1-14.1,0.8-24.1,15.1-31.2
		c8-3.9,12.9-4.7,29-4.7c16.7,0,21,0.8,31,5.5c6.5,3.1,16.3,9.6,21.8,14.9l10,9.4l13.1-8c6.9-4.3,24.3-15.5,38-24.5
		c13.9-9.2,26.5-16.7,28-16.7c1.6,0,4.7,2.4,6.9,5.3c3.3,4.1,3.7,6.1,2,9.6c-1.2,2.4-18.2,14.9-37.8,27.8
		c-27.8,18.2-35.5,23.9-34.3,26.5c8.4,20.6,9,55.3,1,76.1c-4.9,12.9-11,18-21,18c-7.6,0-22.7-6.3-25.3-10.4c-1-1.6-2.4,2.9-4.1,12.2
		c-1.4,8.2-5.1,20-8.4,26.3c-4.9,9.8-6.7,11.8-13.1,13.5c-6.1,1.4-9.2,0.8-19.4-4.1c-6.5-3.1-12.4-5.9-13.1-6.3s-2.2,6.1-3.5,14.3
		c-5.1,31.8-15.7,48.2-29.2,44.9c-7.8-1.8-22-12.2-25.3-18.6l-3.1-5.5l-0.2,6.5c0,10.8-4.5,26.5-11,39.8
		c-7.6,15.3-17.1,23.1-26.7,21.2c-5.7-1.2-15.7-10-20.4-18.6c-2-3.5-3.1-3.1-12.2,4.1c-5.7,4.3-14.1,9.4-18.8,11.6
		C203,7765.6,183.4,7767.4,176.9,7764z M206.7,7741.1c13.5-6.3,24.7-19.4,28.6-33.9c1.6-6.1,4.3-15.5,5.7-20.8
		c1.6-5.5,2.7-9.8,2.2-9.8c-0.4,0-6.5,3.3-13.7,7.3c-22.7,12.7-35.9,28.4-40.2,47.8C185.9,7747.2,189.5,7749.1,206.7,7741.1z
		 M274.9,7733c10.6-23.5,13.1-55.5,5.5-69.8l-2.9-5.7l-5.1,8.2c-14.5,22.9-18.4,48.8-10.4,66.7c2.4,5.3,5.5,9.6,6.7,9.6
		S272.8,7737.9,274.9,7733z M336.9,7690.5c5.1-13.1,6.9-29,5.1-41.2c-2-11.8-6.7-24.7-10-26.7c-3.5-2-14.5,24.3-15.7,37.3
		c-1.2,12.4,3.5,27.1,11,35.5C332,7700.7,333.4,7700.1,336.9,7690.5z M227.9,7659.9c1.6-0.2-2.4-0.8-9.2-1.4
		c-10.6-1-12.4-2-15.3-6.9c-2.7-4.9-2.7-5.9,0-7.6c1.6-1,8.6-2,15.3-2.2c6.7,0,16.7-0.8,22.2-1.4l10-1.4l-9-7.3
		c-13.5-11-17.3-12.4-26.9-11c-16.7,2.9-34.9,15.9-33.7,24.3c1,7.6,27.8,18.8,39.4,16.3C223,7660.7,226.3,7660.1,227.9,7659.9z
		 M299.1,7642.3c0.2-1.4-0.6-2-1.8-1.4c-1,0.6-2,3.7-1.8,6.7c0,4.9,0.2,5.1,1.8,1.4C298.3,7646.8,299.1,7643.8,299.1,7642.3z
		 M397.5,7632.1c2.2-11.4,1.6-38.6-1.2-45.7c-2.2-5.5-4.3-4.7-15.3,5.7c-13.1,12.2-15.7,21-11.4,36.5c2.2,7.6,5.5,12.7,10.8,17.3
		l7.6,6.7l3.5-4.5C393.4,7645.8,396.1,7638.7,397.5,7632.1z M283,7624.6c5.1-2.9,5.1-2.9-3.1-3.1c-4.5,0-11.4-0.8-15.1-2
		c-9.4-2.7-10-1.4-1.8,3.7C271.2,7628.1,276.1,7628.5,283,7624.6z M451.2,7599.7c5.7-16.9,3.3-53.9-3.5-53.7
		c-4.9,0.2-34.1,22.7-34.1,26.1c0,7.6,10.6,24.9,19,31C444.2,7611.7,447.3,7611.1,451.2,7599.7z M296.1,7604
		c12.2-1.8,11.8-5.1-1.4-14.3c-16.5-11.4-33.5-13.3-51.8-5.7C219.3,7593.4,260.4,7608.9,296.1,7604z M338.9,7588.9
		c5.1-2,9.4-4.3,9.4-4.9c0-0.4-3.5-0.4-7.6,0.2c-4.3,0.4-12.2-0.6-18-2.2c-5.5-1.6-10.2-2.9-10.6-2.4s15.5,13.1,17.1,13.5
		C329.5,7593,333.8,7591.1,338.9,7588.9z M366.5,7564.4c2-1,1-2.9-4.1-6.5c-10-7.3-22.9-11.8-34.7-11.8c-11.4,0-25.1,4.9-23.9,8.6
		c1.6,4.9,11,9.8,22,11.6C337.5,7568.1,361.4,7567,366.5,7564.4z M402.4,7548.1l6.1-4.1h-8.2c-4.5,0-11.6-1-15.9-2.2
		c-4.5-1.2-8.4-1.8-8.8-1.2c-1.4,1.2,14.1,11.6,17.6,11.6C394.9,7552.1,399.1,7550.3,402.4,7548.1z M425.7,7523.8
		c4.5-2.9,0-7.1-13.7-13.9c-13.3-6.5-30-7.6-40.2-2.4c-8.6,4.1-7.6,8.2,3.1,13.7c7.6,3.7,12.2,4.5,28.6,4.5
		C414,7525.6,424,7524.8,425.7,7523.8z" />
                <path d="M2732.6,7243.7c-28.4-7.6-57.1-25.7-65.3-41.4c-4.7-9.2-4.1-21,1.2-26.7c4.5-4.9,17.8-9.4,27.1-9.4c4.1,0,5.5-1.8,8.8-11.2
		c13.9-40.8,77.6-72.2,103.1-50.8c4.7,4.1,8.8,5.3,17.8,5.7c39.6,2,59.6,23.9,47.3,52c-5.1,11.8-17.3,23.1-35.1,32
		c-11.8,6.1-41.2,13.7-47.8,12.4c-5.7-1-5.7-1.2-0.6,8.2C2803.2,7240.8,2775.8,7255.1,2732.6,7243.7z M2769.7,7225.5
		c0.6-1-1.2-3.7-4.1-5.9c-4.3-3.5-8.2-4.1-21.4-4.1c-9,0-19.4-1-22.9-2.4c-10.2-4.1-20-12-20-16.3c0-9.6-4.3-12.4-12.4-8
		c-3.9,2-3.9,2,0.2,8c10.6,14.9,44.5,30.4,66.7,30.6C2762.8,7227.4,2768.9,7226.6,2769.7,7225.5z M2766.2,7189.4
		c14.9-7.1,35.1-26.9,35.1-34.3c0-2.9-0.6-5.3-1.2-5.3c-0.6,0-4.7,3.1-9,6.7c-11.6,10-36.3,21.4-53.9,25.3
		c-14.9,3.3-17.3,4.9-13.9,10C2727.9,7198.6,2749.7,7197.4,2766.2,7189.4z M2823,7178.2c16.5-6.3,42.4-32,27.1-27.3
		c-13.7,4.3-24.5,11-33.9,20.6C2804.4,7183.5,2805.6,7184.7,2823,7178.2z M2753.8,7157c24.5-11.4,44.9-34.5,34.1-38.6
		c-9.4-3.7-35.3,7.1-49,20.6c-9.4,9-16.3,21.6-13.9,25.3C2726.9,7167.4,2737.1,7164.7,2753.8,7157z M2831.5,7136.8
		c6.3-2.7,8.2-4.3,6.1-5.5c-2.7-1.8-22-2.7-22-1c0,3.1,4.3,11.6,5.7,11C2822.2,7140.8,2826.7,7138.8,2831.5,7136.8z" />
                <path d="M2579.2,7154.5c-11.2-3.5-18.2-10-19.8-18.8c-1.8-10.2,0.4-16.3,10.8-27.3c21.6-23.1,69.2-35.7,105.1-28.2
		c21,4.7,30,21.4,19.8,37.8C2678.8,7144.5,2613.5,7165.1,2579.2,7154.5z M2635.1,7132.6c13.9-4.5,38-18.6,41.4-24.3
		c8-12.7-42.4-12.4-72.4,0.4c-11.4,4.9-23.1,15.3-23.1,20.6c0,2,1,3.7,2,3.7c1.2,0,2-0.8,2-1.8c0-2.4,26.5-15.1,43.3-20.4
		c18.4-6.1,24.9-5.3,25.7,3.1c0.6,5.9-0.2,6.5-11.2,11.4c-6.5,2.9-16.7,6.7-22.4,8.8c-5.9,1.8-10.8,3.9-10.8,4.5
		C2609.6,7140,2620.8,7137.3,2635.1,7132.6z" />
                <path d="M2477.1,7178c-27.6-6.1-49.4-16.9-64.9-32.2c-12-11.8-14.3-17.3-10.6-25.9c7.8-19,63.1-34.1,105.3-29
		c21.4,2.7,38.2,9.8,42.7,18.6c5.7,11.2,2.9,24.5-7.1,32c-2,1.6-3.1,5.7-3.1,12.7c0,8.4-1,11.2-5.7,16.1
		C2523.9,7180.5,2501.8,7183.5,2477.1,7178z M2512.4,7159.7c8.6-2,6.7-9.4-3.7-14.5c-6.5-3.3-13.5-4.1-33.7-4.7
		c-14.1-0.4-26.7-1.8-28-2.9c-4.1-3.3-3.1-9.2,1.8-12.7c6.5-4.7,49-4.5,65.5,0.2c11.8,3.3,12.2,3.3,15.1-0.6
		c2.4-3.3,2.2-4.1-0.8-6.5c-11.4-8.4-52.9-9.8-79.2-2.7c-9,2.4-18.6,6.1-21.4,8.4l-5.1,3.9l5.9,6.1c11.2,11.8,37.3,23.1,61.4,26.7
		C2500.6,7161.9,2502,7161.9,2512.4,7159.7z" />
                <path d="M1099.6,7160.9c-24.1-3.7-36.3-6.7-49.8-13.1c-14.9-6.9-24.3-15.5-25.9-23.9c-0.8-4.3,2-23.9,7.3-53.5
		c10.4-56.1,12-78,7.3-96.5c-4.3-17.3-16.9-42-37.8-74.3c-21.4-33.1-31.6-53.1-37.3-73.7c-4.3-15.1-4.5-21.4-5.3-88.4
		c-0.6-62.2-0.2-73.7,2.7-83.7c12.2-42.4,43.1-62.7,111.2-72.9c46.3-6.9,100.6-6.1,148.6,2.2c43.7,7.6,77.3,26.7,90,51.4
		c9.4,18.6,10.2,28.6,8.6,107.6c-1.4,68.4-2,74.5-6.3,87.8c-7.1,22.4-14.3,36.5-34.1,68.4c-47.3,75.9-49,85.9-29.2,183.3
		c3.3,16.5,6.1,33.1,6.1,36.7c0,19.2-21.6,33.1-63.3,40.4C1167.9,7163.2,1122,7164.2,1099.6,7160.9z M1181.2,7139.1
		c8.8-1.2,21.4-3.9,28.4-5.9c32-10,27.1-18-17.1-27.8c-23.3-5.1-82.4-4.7-108.4,0.8c-23.5,4.9-34.9,9.8-34.1,14.5
		c1,4.9,17.6,12.2,37.8,16.5C1108.5,7141.7,1156.3,7142.6,1181.2,7139.1z M1217.3,7086.2c-17.3-14.5-80.6-20.2-123.3-11.2
		c-13.5,2.7-35.1,11-33.5,12.7c0.4,0.4,8-0.6,16.7-2.4c33.7-7.1,101.6-6.1,130.4,1.8C1221.8,7090.9,1222.6,7090.7,1217.3,7086.2z
		 M1066.9,7059.9c31.2-11.8,95.5-13.5,134.5-3.5c11.2,2.9,20.6,5.1,20.8,4.7c0.2-0.2-0.8-9.2-2.4-19.8s-3.5-28.2-4.1-38.8
		c-2-33.3,7.3-57.6,45.5-118c35.7-56.5,36.3-59,36.3-152.4v-73.5l-5.7-11.6c-12-24.5-38.2-36.7-96.3-45.5
		c-33.1-5.1-80.8-4.7-116.1,1c-59.8,9.4-85.9,23.7-96.3,52.4c-4.1,11.8-3.9,141.6,0.2,159.4c4.5,18.8,14.1,38.4,35.3,71.2
		c21.6,33.5,30.8,51.4,38.6,73.5c4.5,13.3,5.3,19.4,5.3,37.3c0,11.8-1.4,29.8-3.3,39.8c-3.1,16.7-4.3,27.6-2.9,27.6
		C1056.5,7063.8,1061.4,7061.9,1066.9,7059.9z" />
                <path d="M1075.9,7027.2c-2.4-2.9-3.9-6.7-3.3-8.6c5.7-18.8,6.7-52,1.8-73.5c-3.7-16.5-2.2-20.6,7.3-20.6c7.6,0,9.8,3.3,13.3,19.6
		c3.9,18.2,3.9,42.2,0,63.9C1091,7031.8,1084.5,7038.2,1075.9,7027.2z" />
                <path
                        d="M1095.7,6875.5c-19.2-2.2-47.6-9-58.8-14.1c-25.3-11-36.1-29-40.6-67.6c-1.4-12,1.4-18.2,8.8-18.2c6.9,0,9.2,3.9,11.8,20.4
		c1.4,9.2,3.1,17.1,3.5,17.8c0.6,0.4,3.9-0.6,7.3-2.2c11.8-6.3,47.8-13.5,79.4-15.9c49.4-3.9,104.3,2,138.6,14.7
		c9.8,3.7,10.6,3.7,12,0.4c2.9-6.1,3.5-144.9,0.6-151.8c-1.6-3.9-6.3-8.2-13.3-12c-12.9-7.3-15.7-13.1-9-18.6
		c8.2-6.5,27.6,2.2,38,16.9l5.9,8.6l0.6,68.6c0.6,71-0.4,84.7-8,106.1c-9.2,26.5-36.7,40.6-91.6,47.1
		C1161,6878.2,1117.1,6878,1095.7,6875.5z M1170.6,6855.1c37.3-3.5,70.4-13.3,73.1-21.6c0.8-2.4-14.5-7.6-36.1-11.8
		c-24.9-5.1-93.9-6.3-122.4-2.2c-33.7,4.9-51,10.4-51,15.7c0,3.3,16.1,10,33.1,14.1C1100,6857,1132,6858.8,1170.6,6855.1z" />
                <path d="M1005,6749.8c-3.3-1.8-3.7-5.3-3.7-24.9c0-24.3,1.2-28,9.4-28c7.1,0,8.4,3.9,9.4,27.1c0.8,17.3,0.4,22.9-1.8,25.1
		C1014.8,6752.4,1009.9,6752.8,1005,6749.8z" />
                <path d="M1003.8,6667.8c-2-2-3.5-5.5-3.5-7.6c0-4.9,15.9-20.2,23.9-23.1c13.3-4.5,22.7,8,11.4,15.3c-3.1,2-10.2,7.1-15.5,11.2
		C1008.7,6672.7,1008.3,6672.7,1003.8,6667.8z" />
                <path d="M3509.7,6742.5c-13.7-4.5-15.3-6.7-78.8-107.8c-6.5-10.6-15.3-23.9-19.2-29.2l-7.3-9.8l-5.7,7.1
		c-3.3,3.9-11.6,9.8-18.6,13.3c-10.4,5.3-14.9,6.3-27.1,6.3c-15.5,0-25.1-2.4-33.7-8.2c-3.1-2.2-10.4-3.9-18.4-4.5
		c-14.5-0.8-27.3-6.3-37.8-15.9c-3.3-3.1-13.1-8.8-21.4-12.9c-32.9-15.5-45.1-33.9-46.5-70c-0.8-18.4-0.2-21.8,4.3-33.1l5.1-12.7
		l-10.8-13.7c-5.9-7.8-13.1-18.8-16.1-24.5c-10.4-20.8-11.4-29.2-11.4-94.7c0-69.4,1.2-76.9,16.9-100.2
		c19.2-28.8,55.7-46.9,116.7-58c16.3-3.1,31.2-3.7,74.5-3.9c47.3,0,57.1,0.6,79,4.5c13.9,2.7,30.6,6.5,37.3,8.8
		c37.1,12.4,64.1,32.7,76.1,57.1c10.6,21,12.2,34.5,11.2,99.6c-0.8,46.9-1.6,58.4-4.5,67.8c-5.1,15.5-11.4,27.3-22.7,42.7l-9.6,13.1
		l4.7,10.2c4.3,9,4.9,13.3,4.7,33.9c0,19.4-0.8,25.7-4.5,35.1c-6.7,16.7-18,28.4-36.9,38.4l-16.1,8.4l25.3,38
		c29.4,43.7,37.3,58.6,39,71.8C3560.9,6730,3537.2,6751.2,3509.7,6742.5z M3532.3,6718c4.1-5.7,4.1-18,0.4-27.1
		c-1.6-3.9-21-33.7-43.1-66.5c-30-44.7-39.4-60-37.8-62c1.6-2-0.2-4.1-7.8-8.8c-15.1-9.4-18.6-21-8-27.8c2.7-1.6,4.9-0.6,11,5.3
		c9.2,9,16.1,11.8,28,11.8c13.1,0,19.2-9,8-11.2c-15.7-3.3-20.8-5.5-22-9.4c-2.4-7.3,2.4-10,17.3-10c16.5,0,22.4,3.7,27.6,17.1
		c5.9,15.5-0.2,25.3-19.6,31c-12.9,3.9-13.9,4.9-9,9c4.9,4.1,27.3-6.3,37.6-17.3c13.3-14.5,13.7-25.3,1-37.1
		c-23.7-22.2-89.2-37.1-152.9-34.7c-53.5,2.2-85.1,8.8-115.3,23.9c-32.9,16.5-35.1,33.3-7.3,53.3c4.3,3.3,8.6,5.9,9.4,5.9
		c0.8,0,2.7-4.1,4.1-9.2c3.9-13.7,15.9-20,22.7-12c2,2.7,2,5.1-1.2,14.1c-3.1,9.4-3.3,11.8-1,17.3c3.9,9.6,15.3,16.3,27.1,16.3
		c6.7,0,13.5,1.8,22.2,6.3c15.9,8,31,9.8,43.3,5.1c8.6-3.3,15.1-9.4,27.3-25.5c5.5-7.3,13.9-8.4,20.4-2.7
		c4.3,3.5,61.2,90.2,81.6,123.9c14.5,24.3,15.9,25.5,25.1,25.5C3527.2,6722.5,3530.1,6721.2,3532.3,6718z M3251.1,6479
		c14.9-6.5,48.6-14.7,72.2-17.8c24.9-3.1,79.2-2.4,103.9,1c42.2,6.1,75.9,16.7,94.1,29.8c7.8,5.5,8.2,5.7,8.2,1.8
		c0-11.4-15.5-27.6-35.7-36.9c-14.5-6.9-44.3-14.9-67.1-18c-8.8-1.2-31.4-2.2-50.6-2.2c-78.4,0-142,19.6-155.5,47.8
		c-5.9,12.7-4.5,14.1,7.6,6.7C3233.8,6487.6,3244.2,6482,3251.1,6479z M3277.4,6426.7c34.9-8.8,55.7-11,98-11
		c42.7,0,66.1,2.7,96.5,10.8c8.2,2.2,15.9,4.1,17.3,4.1c1.6,0,6.3-5.9,10.6-13.5c9.4-15.9,13.5-18.8,20.6-14.1
		c6.5,4.3,6.1,8.4-2.2,22.2c-3.9,6.5-7.1,13.1-7.1,14.3c0,1.2,3.1,3.9,6.5,5.9l6.7,3.9l6.7-8c3.7-4.3,10.6-15.5,15.3-24.9l8.6-17.1
		l0.6-58.4c0.6-58.2,0.6-58.4-4.1-65.3c-9.6-14.1-9.8-12.7-9.8,44.7c0,32.9-0.8,54.9-2,57.3c-2.4,4.5-12,5.3-15.9,1.4
		c-1.8-1.8-2.4-18.6-2.4-62.9c0-60.2,0-60.6-4.5-64.7c-4.5-4.1-25.7-12.9-30.8-12.9c-1.8,0-2.2,13.5-1.8,57.1
		c0.4,38-0.2,58.4-1.6,61.2c-2.4,4.7-12,5.5-15.9,1.6c-1.8-1.8-2.4-16.5-2.4-53.5c0-64.7-0.8-72.2-8-75.1
		c-20.2-7.8-96.3-10.4-135.9-4.7c-11.2,1.6-21,3.1-21.8,3.1c-3.1,0-4.3,16.3-5.5,71.4l-1.2,58.2l-5.5,1.8c-4.5,1.6-6.5,1.2-9.8-1.8
		c-4.3-3.9-4.3-5.3-3.7-62.9l0.6-59l-6.1,1c-9.2,1.6-29.2,9.4-32.7,12.9c-2.7,2.7-3.1,12.7-3.1,63.9c0,58.6-0.2,61-4.1,64.5
		c-3.3,3.1-5.3,3.5-9.8,1.8l-5.5-1.8l-0.6-57.1c-0.2-31.4-1.2-57.8-2.2-58.8c-0.8-0.8-6.1,2.4-11.6,7.3l-10,9.2l-0.6,48.2
		c-0.4,28.8,0.2,53.9,1.6,62.9c2.4,16.7,12.4,37.6,24.5,51.2l7.8,8.8l20.2-9.8C3252.1,6435.1,3268.4,6428.8,3277.4,6426.7z
		 M3545.8,6244.3c0-0.4-2.4-2.9-5.3-5.7c-5.1-4.5-5.3-4.7-3.1-0.4c1.8,3.7,3.9,5.3,8,6.5C3545.6,6244.9,3545.8,6244.7,3545.8,6244.3
		z M3215.2,6233.5c0-4.3-2.4-3.3-7.8,3.3l-4.5,5.9l6.1-3.1C3212.3,6237.8,3215.2,6235.1,3215.2,6233.5z M3266.4,6216.3
		c11.4-2.2,13.9-4.7,14.1-13.7c0-5.3-34.7,6.9-39.6,14.1c-5.7,8.2-4.1,10,5.5,5.7C3251.1,6220.4,3260.1,6217.8,3266.4,6216.3z
		 M3515.2,6224.7c0-5.3-10.4-13.1-23.3-17.6c-8-2.9-14.7-4.7-15.1-4.3s0.8,4.1,2.4,8.2c2.2,5.3,4.3,7.3,7.8,7.6
		c2.7,0,9.4,1.8,14.9,3.9C3514.2,6226.9,3515.2,6227.2,3515.2,6224.7z M3330.3,6204.1c13.5-2,12.4-1.4,14.5-8l1.4-4.9l-15.9,1.4
		c-22.7,2-24.7,2.9-27.1,9.8l-2.2,6.3l8.8-1.6C3314.4,6206.5,3323.5,6205.1,3330.3,6204.1z M3456,6205.5c0-8.8-11.6-11.6-60.4-14.9
		c-22-1.4-29.4,0.4-29.4,7.1c0,3.3,3.1,3.9,33.3,5.1c18.2,0.6,36.7,2,41.2,3.1C3452.7,6208.6,3456,6208.4,3456,6205.5z" />
                <path d="M3318.7,6585c-13.5-4.7-20-9.4-27.6-20c-6.9-10-9.4-24.9-4.7-29c1.8-1.4,5.7-2.2,8.8-1.8c4.7,0.6,6.1,2.2,9.2,11.8
		c5.7,17.3,17.1,24.5,40,24.5c16.1,0,31.8-6.7,40.8-17.6c4.3-4.9,9.2-9,11.2-9c4.1,0,11.8,6.9,11.8,10.6c0,1.4-5.3,7.8-12,14.1
		c-9.8,9.6-14.5,12.4-25.7,15.9C3353.4,6589.9,3333.6,6590.1,3318.7,6585z" />
                <path
                        d="M3322.2,6528.2c-14.9-4.1-22.4-19.6-11.2-23.1c4.5-1.4,30.6,12.4,30.6,16.3C3341.6,6527.4,3331.6,6530.9,3322.2,6528.2z" />
                <path d="M3406,6525.3c-6.3-2.7-10-11-6.5-15.3c3.1-3.9,15.9-3.9,21-0.2c5.3,4.1,4.5,12.4-1.6,15.1
		C3412.8,6527.8,3412.4,6527.8,3406,6525.3z" />
                <path d="M3343.3,6334c-1.8-1.8-2.4-16.9-2.4-55.7c0-49.2,0.2-53.7,3.7-56.7c4.9-4.5,9.2-4.3,13.3,0.2c3.1,3.3,3.5,10.4,3.5,56.7
		c0,38.6-0.6,53.7-2.4,55.5C3355.7,6337.1,3346.3,6337.1,3343.3,6334z" />
                <path d="M3403.3,6334c-1.8-1.8-2.4-16.7-2.4-54.7c0-43.9,0.4-52.9,3.3-56.7c3.7-5.5,9.2-5.7,13.7-0.8c3.1,3.3,3.5,10.4,3.5,56.7
		c0,38.6-0.6,53.7-2.4,55.5C3415.8,6337.1,3406.4,6337.1,3403.3,6334z" />
                <path d="M3345.9,6559.7c-2.2-2.2-4.1-4.9-4.1-5.7c0-0.8,4.3-5.7,9.4-10.6l9.4-9.2l-1.2-12.7c-1.2-14.3,1.2-18.4,10.2-16.1
		c6.3,1.6,11,11.8,11,24.3c0,11.2-8.6,24.1-20.2,30C3350.4,6564.5,3350.8,6564.5,3345.9,6559.7z" />
                <path
                        d="M1389.5,8228.2c-4.5-2-9.4-5.7-10.6-8c-4.5-7.3-6.9-22.9-5.5-33.7c1.2-9.4,2.7-11.8,11.8-20.8c5.7-5.5,13.9-12.7,18-15.7
		l7.3-5.5l-0.8-13.7c-0.4-7.6-1.4-14.3-2.2-15.1c-22.9-19.6-43.9-38.8-49-44.7c-6.3-7.1-6.7-8-6.7-24.7V8029l3.9,6.1
		c2,3.5,5.5,7.8,7.8,9.8c3.9,3.5,3.9,3.3,1.2-9.2c-3.9-18.2-7.3-65.3-6.1-82c0.6-10.6,1.8-14.9,4.7-16.9c4.7-3.5,5.7-3.3,10.8,1
		c3.9,3.3,4.3,6.1,5.1,37.1c1,32,3.7,51,10.4,74.3c3.3,11,14.9,32.9,16.5,31.2c0.6-0.6,0-5.1-1.4-9.8c-1.8-6.7-2.4-38.8-2-127.1
		c0.6-137.3,0-132,18.4-150.4c10-9.8,14.1-12.4,25.9-16.1c13.9-4.1,17.6-4.3,112.2-3.7c94.5,0.6,98.2,0.8,107.1,4.9
		c12.9,5.9,23.1,15.5,28.6,26.9l4.9,9.6v118.4c0,129.6,0.4,125.1-12.7,153.9c-6.1,13.7-6.5,15.7-4.5,23.3c1.2,4.5,1.8,13.7,1.4,20.2
		l-0.6,12l17.1,10.6c23.5,14.5,25.7,18,25.5,38.8c0,21.4-3.9,30.2-15.9,36.1c-8.4,3.9-11.8,4.1-135.3,4.1
		c-124.5,0-126.5,0-130.2-4.1c-3.1-3.3-3.5-5.3-1.8-9.8c1.6-4.7,3.5-5.7,12-6.9c5.7-0.8,63.3-1.2,128.4-1.2
		c98.2,0.2,118.4-0.4,119.8-2.7c1-1.6,1.8-8.2,1.8-14.5v-11.8l-21.8-14.5c-12.2-8.2-22.4-15.5-23.1-16.3c-0.6-1-43.5-1.8-94.9-1.8
		c-79.8-0.2-93.9,0.2-94.5,2.7c-1,4.5,9.4,11.6,16.7,11.6c3.7,0,8.4-1.4,10.6-3.1c5.1-3.9,11.4-3.9,20.6,0c6.5,2.9,9.2,2.7,24.3-0.2
		c14.3-2.7,18.4-2.7,24.3-0.6c5.5,2,7.8,2,9.6,0.2c3.9-3.9,17.1-2.9,28.4,1.8l10.2,4.5l7.8-4.5c11.8-6.5,23.5-5.7,40.2,2.9
		c20.8,10.8,24.1,13.7,22.4,20c-2,8.8-8,8.8-27.1-0.4c-9.6-4.7-18.6-8.4-20-8.4s-4.7,3.3-7.1,7.1c-2.4,3.9-6.1,7.1-8.2,7.1
		c-3.3,0-23.1-8.2-36.9-15.1c-5.3-2.7-5.5-2.7-6.7,2.9c-1.6,8.4-8.2,9.8-16.9,3.5l-7.3-5.3l-11.8,6.1c-15.3,7.6-20.8,7.6-26.3-0.2
		c-2.4-3.3-5.1-6.1-6.1-6.1c-0.8,0-6.5,3.3-12.4,7.1c-11.8,8.2-18.8,8.6-19.8,1.6c-0.4-2.7-1.8-4.7-3.3-4.7c-1.2,0-5.9-1.8-10.4-4.1
		l-7.8-4.1l-9,8.4c-14.5,13.3-23.9,14.7-26.5,4.3c-1-4.7,0.6-7.1,13.3-19c8.2-7.6,14.7-14.3,14.7-14.9s-2.4-1.2-5.3-1.2
		c-3.7,0-9.6,3.7-18,10.8c-6.9,5.9-16.7,14.1-22,18.4c-9.2,7.3-9.8,8.4-9.8,17.3c0,12.2,1.2,13.9,11.8,15.3c4.7,0.6,10,2.2,11.6,3.5
		c4.5,3.7,3.9,13.7-0.8,16.3C1411.2,8233.3,1398.5,8232.5,1389.5,8228.2z M1540.4,8126c2.9-1,6.5-4.7,8.4-8c9-17.6-4.7-29.6-29-25.5
		l-9.8,1.6l13.1,1.4c13.5,1.6,16.5,3.7,16.5,11.4c0,8.2-5.1,10.8-21,10.8c-23.5,0-31.2,3.7-16.1,7.8
		C1512.4,8128.2,1533.8,8128.4,1540.4,8126z M1662,8125.2c0-0.4-0.6-2.2-1.2-4.1c-1-2.9-6.7-3.3-42.4-3.3c-23.5,0-42-0.8-43.3-2
		c-1.2-1.2-3.1,0.4-5.3,4.1l-3.5,6.1h47.8C1640.4,8126,1662,8125.6,1662,8125.2z M1468.1,8109.7c0-13.3,0.4-14.9,6.7-21.4
		c8.6-9.4,26.3-15.7,47.3-16.7c15.5-1,17.1-0.6,29.6,5.9c9,4.7,14.5,9,17.3,13.9l4.1,7.1l43.5-0.6l43.5-0.4l1.8-5.3
		c3.1-8,2.7-8.4-7.8-9.8c-13.3-1.6-29.4-10-37.3-19.2c-4.9-5.5-6.9-6.7-7.6-4.5c-2,6.5-18,20-26.5,22.4
		c-18.2,5.5-35.9-5.9-42.7-27.8c-7.6-24.7-1.8-68.2,10.2-77.1l5.5-4.1l4.5,4.5l4.5,4.5l-4.7,13.7c-9.2,26.9-7.6,53.7,3.9,65.9
		c6.9,7.6,12,7.8,20.4,0.8c7.6-6.5,11.4-13.5,14.3-26.5c3.1-13.1,0-25.3-11.6-48.2c-8.8-17.3-9-17.8-6.9-29.8
		c2.2-14.3,7.1-24.9,11.4-24.9c5.5,0,11.8,8.2,10.2,12.9c-4.7,13.9-3.7,22.9,4.9,40c4.7,9,9,16.5,9.4,16.5c3.5,0,18-11.8,21.4-17.3
		c6.3-10.2,5.3-20-4.5-41.2c-8.2-17.3-9.2-18.6-13.9-17.3c-20.2,4.9-40.8-7.3-49-29.2c-3.7-9.4-3.1-31.2,1-44.9
		c7.6-25.9,15.3-34.9,24.7-28.6c6.1,3.9,6.1,4.5,0,15.5c-7.6,13.7-12,31.4-11,43.9c1,12.9,8,23.1,19,28.2c6.5,3.3,8,3.3,12,0.6
		c12.4-8.2,16.7-34.7,9.4-56.5c-2.4-7.3-4.5-16.7-4.5-20.8c0.2-9.8,6.1-23.3,14.7-32.9l6.5-7.6h-22h-22.2l-9.2,7.3
		c-11.6,9.4-17.6,11.6-22.7,9c-4.3-2.4-5.1-9.2-1.2-11.6c4.3-2.7-15.7-4.3-56.9-4.5c-44.1-0.2-51.8,0.6-51.8,5.9
		c0,4.1-3.9,6.1-12.2,6.1c-6.9,0-15.3,9-18.4,20c-3.3,12.2-2.7,14.1,4.9,15.3c12.7,2,29.8,12,40.6,23.9l10.6,11.4l-0.6-8.6
		c-1-11.6,4.3-28.8,12.4-40.8c16.7-24.3,52.4-37.6,52.4-19.4c0,5.5-1,6.3-10.6,9.6c-7.3,2.4-13.7,6.5-20.2,13.3
		c-11.8,12.2-16.5,23.9-15.7,38.6c0.6,10.6,0.8,11.2,6.5,11.8c7.1,0.8,22.4-4.7,31.2-11.2c10-7.8,16.9-23.3,16.9-38.6
		c0-9.6,0.8-12.9,3.3-13.9c5.1-1.8,6.7-1.4,11,2.9c5.1,5.1,5.3,15.5,0.8,30.6c-8.6,28.8-29.6,45.5-57.3,45.7
		c-12.9,0.2-15.3-0.4-20.2-4.9c-4.7-4.3-5.3-4.5-3.9-1c4.1,9.4,3.5,25.3-1,34.7c-10.2,21.2-40.8,26.1-59.6,9.6
		c-3.3-2.9-3.7-2.9-3.7,0c0,1.8,3.5,5.7,7.8,8.8c4.1,3.1,10.8,9.2,14.9,13.7l7.3,8l9.8-8.8c5.3-4.9,14.9-14.1,21-20.6
		c6.3-6.3,12.9-11.6,14.9-11.6c3.9,0,10,7.3,10,11.8c0,1.6-7.1,10.2-15.7,19l-15.5,16.1l4.3,4.7c10.8,11.4-1.8,22-13.3,11.2
		l-4.9-4.5l-5.5,5.5l-5.3,5.5l4.1,4.1c2.2,2.2,9,6.7,15.1,9.8c11.6,6.1,15.1,12,10.2,18c-4.3,4.9-11,3.3-26.7-7.1l-15.1-10.2
		l-6.7,7.6c-11.4,12.9-13.3,18.2-12,32.2c1.2,11.4,11,41.6,13.7,41.6c0.6,0,5.1-7.8,10.2-16.9c7.3-13.5,13.9-21.4,33.9-41.2
		c26.3-25.9,28-28.2,32.7-44.1c3.5-11.8,10.2-15.1,17.3-8.8c3.5,3.3,4.1,5.5,3.1,12.9c-2,15.5-11,28.4-38.2,55.3
		s-35.9,40.4-43.5,66.9l-3.1,10.6h10.2h10V8109.7z M1675.3,8061.3c0.8-2,1.8-11.4,2.4-21l1-17.3l-15.3-5.7
		c-8.4-3.1-16.3-6.9-17.8-8.4c-1.8-2.4-3.7-2.2-11.6,1.2c-5.1,2.2-11,3.7-13.1,3.1c-3.5-1-3.9,0.2-3.9,13.5l0.2,14.7l10.2,9
		c12,10.6,21.4,14.3,35.7,14.5C1671.4,8064.8,1674,8063.9,1675.3,8061.3z M1678.3,7977.8c0-20.8-0.4-23.5-3.3-22.4
		c-1.8,0.6-6.3,1.2-10,1.2c-6.7,0-6.9,0.2-5.7,6.7c0.6,3.9,0,12-1.4,18.4c-1.2,6.3-2.2,12.2-2,13.1c0.4,1.4,13.9,5.9,20,6.5
		C1677.7,8001.5,1678.3,7995.6,1678.3,7977.8z M1432.2,7984.1l5.5-7.1l-5.7-7.1c-5.3-6.7-5.7-6.9-7.3-2.7c-1.2,3.5,0,24.1,1.6,24.1
		C1426.5,7991.3,1429.3,7988,1432.2,7984.1z M1666.5,7940.1c9.6-6.9,11.8-14.9,11.8-42.9c0-22.7-0.2-24.7-3.5-23.3
		c-2,0.8-7.6,2-12.2,2.4c-7.8,1-9,0.6-10.6-3.7c-2-5.3-1.8-5.5,11.6-13.9c10.4-6.3,14.7-13.9,14.7-26.1c-0.2-8.4-0.4-9.2-2.4-5.7
		c-5.3,9.6-14.5,19.4-18,19.4c-2.2,0-4.9-1.8-6.1-4.1c-2.4-4.5,0-10.6,10.8-26.1c5.1-7.8,5.5-9.4,3.1-11.8
		c-2.4-2.7-3.9-2.2-10.2,2.7c-10.2,8-15.9,16.9-15.9,25.3c0,3.9,2.4,14.3,5.3,23.1c5.7,18,5.3,26.1-1.6,46.5
		c-4.5,13.5-3.5,19.2,5.9,33.9C1655.5,7945.6,1657.9,7946.2,1666.5,7940.1z M1467.1,7922.7c9-9.8,5.5-29.2-8.4-45.5
		c-5.3-6.3-26.9-18.6-32.9-18.6c-1.8,0-2.4,6.3-2.2,24.1c0.2,24.5,1.4,29.8,8.4,35.1C1447.7,7929.5,1459.3,7931.1,1467.1,7922.7z" />
                <path d="M1570.1,8043.1c-3.1-9-1.8-38.6,1.8-42.2c3.3-3.3,8.8,0.4,10.6,6.9c0.8,2.7,1.4,11.8,1.6,20.4c0.2,12.7-0.4,16.1-3.5,18.8
		C1575,8052.1,1572.8,8051.3,1570.1,8043.1z" />
                <path d="M1616.3,7970.3c-5.3-6.9-9.4-16.1-9.4-21c0-5.1,11.8-3.5,17.3,2.4c6.7,7.3,10.4,18.4,7.1,22.2
		C1627.3,7978.8,1621.8,7977.4,1616.3,7970.3z" />
                <path d="M1509.3,7968.4c-1.4-1.4-2.4-4.5-2.4-6.9c0-3.7,3.7-6.3,19.4-13.9c15.1-7.3,22-12.2,32.2-22.9l13.1-13.5l5.7,5.1l5.9,4.9
		l-5.5,9.4c-7.1,12.2-19,22-38.6,32C1522.8,7971.1,1513.6,7972.7,1509.3,7968.4z" />
                <path d="M1526.5,7921.5c-1.8-2.4-3.3-5.5-3.3-6.5c0-1,4.3-6.7,9.4-12.7c10.6-12.7,18.2-14.7,20.4-5.7c1.6,6.3-6.9,19.2-16.9,25.5
		l-6.3,4.1L1526.5,7921.5z" />
                <path d="M1601.6,7890.3c-2.4-3.9-3.1-7.6-2-14.5c3.3-24.7,15.5-22.2,15.5,3.3c0,5.5-0.6,11.2-1.2,13.1
		C1612,7897,1605.3,7896,1601.6,7890.3z" />
                <path
                        d="M1508.9,7862.9c0-8.6,18.4-24.1,25.3-21.4c4.1,1.6,4.1,8.8,0.2,13.9C1526.5,7865.8,1508.9,7871.1,1508.9,7862.9z" />
                <path d="M1436.9,7832.7c-3.5-3.3-1.2-10.8,4.3-13.7c8.8-4.5,29.8-9.8,36.1-9c7.1,0.8,11,6.3,8,11.4
		C1481.2,7827.8,1441.4,7837.2,1436.9,7832.7z" />
                <path d="M1646.7,8045.8c-10.4-3.9-12.2-5.3-12.9-10c-0.6-4.5,0.4-5.9,4.5-6.9c9.6-2.2,31.8,8.2,31.8,15.3
		C1670.1,8051.5,1663.8,8051.9,1646.7,8045.8z" />
                <path d="M1651.8,7921.7c-2.9-5.1-1.2-18,3.3-26.7c2.4-4.7,4.3-5.9,8.6-5.3c5.3,0.6,5.5,1.2,5.3,11.2
		C1668.3,7918.8,1657.3,7932.3,1651.8,7921.7z" />
                <path d="M1444.2,7909.9c-7.6-4.7-18-21.2-16.1-25.9c2.2-5.7,11.8-1.4,22.2,10c10.2,11,12,18.4,4.5,19.4
		C1452.6,7913.5,1447.9,7912.1,1444.2,7909.9z" />
                <path d="M2185.3,6645.9c-11-3.3-16.9-7.8-18.6-14.9c-1.2-4.7-2-4.9-16.5-4.9c-8.2,0-21.6-1.4-29.8-3.1
		c-17.6-3.7-68.8-24.5-87.6-35.7c-27.6-16.1-45.9-41.8-48.4-67.8c-2.7-29.4,11-86.1,27.1-112.7c37.6-61.4,89.8-91.8,162.7-94.5
		c60.8-2.4,106.7,11.4,145.1,43.3c36.5,30.4,61,83.5,63.9,139.2c1.4,28.2-2,44.1-14.1,61.8c-10.6,16.1-24.7,26.7-52,40
		c-14.5,6.9-23.3,12.4-24.1,14.9c-3.3,10.4-27.6,25.9-50.6,32C2226.5,6647.9,2196.9,6649.2,2185.3,6645.9z M2240.8,6623
		c16.9-5.5,30.8-13.7,30.8-18.4s-22.4-3.9-40.8,1.2c-17.6,4.7-38.8,15.5-38.8,19.4C2192,6631.6,2217.3,6630.4,2240.8,6623z
		 M2151,6605.9c3.9-2.4,1.4-5.7-9.8-12.7c-16.3-10.4-55.7-20.4-60.6-15.5c-2,2,5.1,9.2,14.5,14.9c10.4,6.1,23.7,10.8,36.7,12.9
		C2145.9,6607.9,2147.7,6607.9,2151,6605.9z M2202.8,6593.6c5.5-2.4,15.5-5.9,22.4-7.8c15.5-4.1,51.4-4.9,58-1
		c9.2,5.1,54.7-20.6,66.5-38c13.5-19.4,15.5-38.4,5.7-53.9c-13.3-20.8-52-39-102.2-47.8c-29.2-5.3-112.2-5.3-139.8-0.2
		c-38.2,7.1-73.9,22-92,38.6c-12.4,11.6-16.1,20.2-14.5,35.3c1.4,14.1,6.9,24.7,19.2,35.9c9.2,8.6,28.8,21.6,29.8,20
		c0.4-0.4,1.6-3.3,3.1-6.3c1.2-3.1,5.3-7.1,9-9c13.3-6.9,51.6-0.6,78.2,13.1c12.4,6.3,26.9,20,29.6,28l2.2,6.9l7.6-4.5
		C2189.6,6600.4,2197.5,6596.3,2202.8,6593.6z M2026.3,6453.6c19-12.4,58.2-25.3,93.7-30.6c27.3-4.3,91.6-4.9,120-1.2
		c39,4.9,70.6,14.1,98.4,28.6c8.6,4.5,16.1,7.8,16.7,7.1c1.8-1.8-8-28.2-15.7-42.2c-8.6-15.7-23.1-33.3-38.2-45.9
		c-12.2-10.6-42.2-25.7-59.2-30c-47.1-12-102.9-7.6-141.2,11.4c-26.3,13.1-55.5,40.4-66.7,62.4c-4.5,9.2-4.3,9.4,4.9,4.7
		c19.4-10,64.3-23.5,70.2-21.2c4.7,1.8,6.5,10.8,3.1,14.1c-1.6,1.4-12.2,5.5-23.7,9c-23.9,7.3-68.2,25.7-70.4,29.4
		c-1.8,2.9-2.2,9.6-0.6,9.6C2018.1,6458.7,2022,6456.5,2026.3,6453.6z" />
                <path
                        d="M2192.7,6581.3c-8-5.3-7.1-19.2,1.2-21.8c6.5-2,14.3,3.9,14.3,11.2C2208.2,6579.1,2198.8,6585.4,2192.7,6581.3z" />
                <path d="M2256.5,6565.1c-15.9-3.7-20-17.3-9.4-31.8c18.4-25.3,71.4-46.3,94.5-37.6c5.9,2.2,11.8,11.6,11.8,18.6
		c0,11.4-17.3,32-34.5,40.8C2302.2,6563.5,2271.2,6568.6,2256.5,6565.1z M2303.4,6540.2c12.4-5.9,27.6-18.6,27.6-23.3
		c0-6.9-26.3-0.8-46.3,10.8c-10.6,6.1-21,14.9-21,17.6C2263.6,6549.6,2290.5,6546.2,2303.4,6540.2z" />
                <path d="M2134.8,6550.6c-29.2-10-50-32-50-52.4c0-5.1,1.6-7.6,8.2-11.8c6.7-4.7,14.9-4.3,35.3,1.6l17.3,4.9l13.3-6.7
		c17.6-8.8,33.5-12.2,54.7-12c18.6,0.4,29.2,3.5,36.3,10.6c5.3,5.3,5.7,16.5,1,24.5c-7.1,12.2-35.5,25.7-56.9,27.1
		c-9.2,0.6-10.4,1.2-12.4,6.7c-1.2,3.5-4.5,7.3-7.1,8.6C2167.4,6555.3,2146.6,6554.7,2134.8,6550.6z M2160.3,6533.2
		c0-7.1-47.8-33.9-52.4-29.4c-1.8,2,4.9,10.8,12.9,17.1c6.7,5.1,30.8,14.7,37.1,14.9C2159.1,6535.9,2160.3,6534.7,2160.3,6533.2z
		 M2208.8,6514.3c5.7-1.8,13.5-5.9,17.1-9.2c5.5-4.5,6.3-6.1,4.1-8.4c-3.9-3.9-35.3-3.1-49.8,1.2c-10,3.1-18.2,8.2-15.7,10
		C2178.4,6518.1,2190.9,6520,2208.8,6514.3z" />
                <path d="M2044.2,6501.9c-5.3-6.3-5.9-10.6-1.6-14.9c5.3-5.3,9.4-5.1,15.3,1c6.1,5.9,6.3,8,1,13.3
		C2053.8,6506.4,2048.3,6506.6,2044.2,6501.9z" />
                <path
                        d="M2135.2,6474.7c-3.1-3.5-3.3-4.9-1.4-9.2c4.3-9.4,19-9,20.4,0.6C2155.8,6477.6,2142.9,6483.3,2135.2,6474.7z" />
                <path
                        d="M2270.7,6488.8c-6.1-6.1,2-20,12-20c4.7,0,10,5.3,10,10.2C2292.8,6488,2276.8,6494.9,2270.7,6488.8z" />
                <path
                        d="M2058,6540.4c-4.1-6.1-2.7-10.6,4.3-13.3c10.6-4.1,20.2,4.9,15.3,14.3C2074.3,6547.5,2062.3,6547.1,2058,6540.4z" />
                <path d="M2053,6395.6c-4.3-5.7-4.3-9.4,0-13.5c7.8-6.9,34.5-20.4,53.3-26.7c18.8-6.1,24.5-6.1,28.6,0.4c3.7,5.9-1.4,10.4-18.4,15.9
		c-15.9,5.3-41.4,16.9-50.2,23.3C2060.8,6398.7,2055.7,6398.9,2053,6395.6z" />
        </g>
        <path d="M325.6,155.6c-1.4,0.3-3,1-3.7,1.6c-1,0.8-1.1,1.3-1.1,3.6c0,2.3,0.1,2.8,1.1,3.7c1,0.9,1,1.2,0.8,3.4
	c-0.2,1.5-1.2,4.4-2.8,7.7c-3.8,8.4-4.2,10.4-3.5,24.2c0.8,17.5,2,19.2,14.3,20.3c7.4,0.6,15.2-0.5,18.3-2.8c2.7-2,3-3.2,3.1-17.8
	c0-14.6-0.2-16.1-3.5-23.1c-3.7-7.9-4.3-11.2-2.5-12.7c0.8-0.6,0.9-1.1,0.8-3.4c-0.2-3.1-0.9-4-4.2-4.8
	C339.8,154.8,329.1,154.8,325.6,155.6z M342.3,157c1.5,0.4,1.8,0.7,1.8,1.5s-0.5,1.2-2.3,2c-4.5,1.9-15.4,1.5-17.9-0.7l-1.2-1
	l1.2-0.9c0.7-0.5,2.1-1,3.4-1.1c1.2-0.2,2.4-0.3,2.6-0.4C331,156,340.6,156.5,342.3,157z M323.9,161.6c3.7,1.8,13.1,2.1,18.4,0.5
	c1.5-0.4,2.8-0.7,2.9-0.6c0.6,0.5-2.3,2.2-4.9,2.9c-8.1,2.2-16.9,0.8-18-2.8C322,160.7,322,160.7,323.9,161.6z M343.4,167
	c0,0.9,0.5,2.6,1.6,6.3l0.3,1l-1.6-0.8c-2.5-1.3-6-1.8-10.4-1.6c-5,0.3-8.5,1.2-9.4,2.5c-1,1.4-0.5,1.5,1.4,0.4
	c2.4-1.4,5.7-2,10.8-1.8c5.6,0.2,8,1.1,8,2.8c0,1.8-2.4,2.6-8.2,2.8c-4.8,0.2-8.7-0.3-11-1.3c-1.7-0.7-2.6-0.1-1,0.8
	c2,1.1,7.5,1.9,12,1.7c4.5-0.2,7.6-1,9.2-2.3c0.6-0.5,1.2-0.7,1.5-0.6c0.7,0.4,2.6,6,3.2,9.4c0.6,4,0.6,23.4,0,26
	c-0.3,1.1-1,2.5-1.6,3.1c-1.7,1.7-6.3,2.8-12.6,3c-5.8,0.2-8.8-0.2-12.1-1.5c-3.9-1.6-4.6-4.3-5-20c-0.3-12.5-0.2-13.4,2.7-19.8
	c2-4.4,2.7-6.5,3.3-9.4c0.2-1.4,0.3-1.5,1.5-1.2c2.8,0.6,10.4,0.6,13.1,0.1C343.3,165.7,343.4,165.8,343.4,167z" />
        <path d="M325.5,168.8c-0.2,0.8-0.3,1.6-0.1,1.7c0.5,0.5,0.8-0.2,0.6-1.7l-0.2-1.5L325.5,168.8z" />
        <path d="M342.2,169.1l0.2,1.8l-1.6-0.3c-4.1-0.8-14.1-0.1-15.6,1.1c-0.9,0.7-0.1,0.7,3.2,0c3.2-0.7,9.7-0.7,12.6,0
	c1.2,0.3,2.3,0.6,2.4,0.6c0.3,0,0-1.6-0.6-3.1l-0.7-1.8L342.2,169.1z" />
        <path d="M326.9,175.1c-0.7,0.3-1.3,0.9-1.3,1.2c0,0.5,0.1,0.5,1-0.2c0.5-0.4,1.4-1,1.9-1.2c0.6-0.3,0.7-0.4,0.2-0.4
	C328.5,174.6,327.6,174.8,326.9,175.1z" />
        <path
                d="M320.6,181c-0.8,2.2-1.2,10.7-0.5,10.7c0.3,0,0.5-1.2,0.5-3.9c0-2.1,0.2-4.8,0.5-5.9C321.7,179.6,321.3,178.9,320.6,181z" />
        <path
                d="M326.3,184.5c-1.6,1.3-1.5,3,0.2,4.5c1.6,1.4,2.4,1.4,4,0.2c1.6-1.2,1.7-3.4,0.1-4.8C329.3,183.2,327.7,183.2,326.3,184.5z
	 M329.3,185.1c0.6,0.3,0.9,0.8,0.9,1.7c0,2.3-2.2,2.9-3.3,0.9c-0.4-0.8-0.4-1.2,0.3-2C328.1,184.6,328.1,184.5,329.3,185.1z" />
        <path d="M334.5,183.9c-0.8,1.1-2,5.8-1.5,6.1c0.5,0.3,1.3-0.5,1.3-1.3c0-0.9,2.1-0.5,2.7,0.6c0.4,0.7,0.7,0.9,1,0.6
	c0.4-0.4,0.2-1.2-0.8-3.3C335.9,183.8,335.1,183,334.5,183.9z M335.7,186.9c0,0.3-0.2,0.5-0.5,0.5c-0.2,0-0.5-0.4-0.5-0.8
	c0-0.4,0.2-0.7,0.5-0.5C335.5,186.2,335.7,186.5,335.7,186.9z" />
        <path d="M338.3,183.8c-0.6,0.5-0.3,0.9,0.8,0.9c1,0,1.1,0.2,1.3,2.1c0.1,1.2,0.4,2.3,0.5,2.5c0.6,0.9,1.1-0.2,1.1-2.3
	c0-2,0.1-2.3,1-2.5c1.7-0.4,0.4-1.1-2.1-1.1C339.7,183.5,338.4,183.6,338.3,183.8z" />
        <path d="M343.1,192.3c-1.1,1.2-1.5,1.2-1.5,0.2c0-0.4-0.3-0.8-0.7-0.8c-0.5,0-0.7,0.5-0.7,2c0,2.5,0.4,3.9,1.1,3.7
	c0.3-0.1,0.6-0.7,0.7-1.3l0.3-1.1l0.8,1.1c0.9,1.1,2.1,1.5,2.1,0.6c0-0.3-0.4-0.9-0.9-1.2c-1.1-0.9-1.1-1.5-0.2-2.7
	C345.1,191.4,344.2,191,343.1,192.3z" />
        <path d="M323.1,192.1c-0.3,0.5-0.4,5.5,0,5.7c0.5,0.5,1.2-0.4,1.2-1.7v-1.3l1,0.8l1,0.9l0.8-0.9c0.7-0.8,0.8-0.8,1-0.2
	c0.2,0.4,0.3,1.1,0.3,1.6c0,0.6,0.3,0.9,0.7,0.9c0.7,0,0.9-2.1,0.3-4.5c-0.4-1.6-1.7-1.8-2.4-0.2s-1,1.5-1.8,0.1
	C324.6,192.1,323.6,191.5,323.1,192.1z" />
        <path d="M335.5,192.4c-0.1,0.1-0.3,1.3-0.3,2.7c0,2.7,0.5,3.4,2.6,3.2c1.7-0.2,1.9-1,0.2-1.3c-1.4-0.2-1.4-0.4-1.4-2.3
	C336.6,192.6,336.2,191.8,335.5,192.4z" />
        <path d="M331.6,194.3c0,2.4,0.4,3.6,1.2,3.6c0.7,0,0.8-1.5,0.4-4C332.7,191.7,331.6,192,331.6,194.3z" />
        <path d="M320.4,202.2c0.3,5.9,0.6,8.6,1.3,8.6c0.2,0,0.3-0.5,0.2-1.2c-0.2-0.6-0.4-3.3-0.6-5.9c-0.2-2.7-0.5-5.2-0.7-5.6
	C320.3,197.7,320.2,199.3,320.4,202.2z" />
        <path
                d="M347.5,201.5c0,1.6,0.2,2.7,0.5,2.7c0.3,0,0.5-1.2,0.5-2.7c0-1.6-0.2-2.7-0.5-2.7C347.7,198.7,347.5,199.9,347.5,201.5z" />
        <path d="M323.2,205c0.1,2.3,0.5,4.3,0.7,4.4c0.5,0.5,0-5.7-0.5-7.4C323,201.3,323,202.3,323.2,205z" />
        <path d="M345.6,204.5c-0.2,0.7-0.4,2.3-0.4,3.5c0,2.9-0.6,4.6-2.1,6c-0.9,0.8-1,1.1-0.5,1.1c1.2,0,3-2.2,3.3-4
	c0.1-0.9,0.2-3,0.1-4.8C346,203.8,345.9,203.5,345.6,204.5z" />
        <path d="M347.4,209.1c-0.4,4.4-0.9,5.3-3.9,6.5c-1.8,0.7-3.3,0.9-8.7,1c-4.9,0.1-6.4,0.3-6,0.6c0.3,0.3,2.4,0.4,5.6,0.4
	c7.5,0,12-1.4,13.1-4.1c0.6-1.3,1.4-6.9,1-7.7C348.1,204.6,347.7,205.6,347.4,209.1z" />
        <path d="M37.8,349.7c-6.4,2.1-8.4,5.1-5.3,7.9c1.6,1.4,5.3,2.8,7.7,2.8c1,0,1.3,0.4,1.3,1.5c0,0.8,0.3,2,0.6,2.6
	c0.7,1.2,4.1,2.4,7.3,2.4c2.8,0,7-2.1,7.9-3.8c0.4-0.8,1.8-1.9,3.1-2.6c4-1.9,5.6-5.8,3.4-8c-0.7-0.7-1.8-0.9-4.1-0.8
	c-1.7,0.2-3.6,0.5-4.2,0.7c-0.9,0.4-1.1,0.2-1.1-0.8C54.2,348.7,44.4,347.6,37.8,349.7z M50,350.4c1.7,0.9,1.5,1.4-1.7,2.9
	c-3.3,1.6-11.8,2.5-11.8,1.3c0-0.4,0.9-0.6,2-0.7c1.8-0.1,1.8-0.1,0.4-0.5l-1.5-0.4l1.8-0.6c1-0.4,1.5-0.7,1.1-0.7
	c-1.2-0.1-6.3,2.2-6.3,2.8c0,0.9,1.8,1.7,5,2.1c3,0.4,8.9-1.1,11.9-3c2-1.2,2.5-0.6,1.3,1.2c-1.2,1.7-7.1,4-10.3,4
	c-5.3-0.1-10-2.7-8.7-4.7c0.7-1.1,4.5-3.1,7.2-3.7C43.3,349.7,48.7,349.7,50,350.4z M60.4,353.3c0,0.3-0.2,0.6-0.6,0.6
	c-0.3,0-0.6,0.3-0.4,0.6c0.1,0.3-0.9,1.2-2.1,1.9c-1.8,1.1-2.4,1.2-3.1,0.5c-1.1-1.1,0-2.5,2.6-3.4
	C59.4,352.6,60.4,352.6,60.4,353.3z M62.8,354.6c0,1.2-1.3,2.8-3.3,4c-2.4,1.4-2.8,1.5-2.8,0.5c0-0.7,4.8-5.1,5.7-5.1
	C62.6,353.9,62.8,354.2,62.8,354.6z M53.4,358.5c0.7,0.2-0.2,0.8-3.4,2.1c-2.4,0.9-4.7,1.5-5,1.4c-0.3-0.2-0.7,0-1,0.4
	c-0.6,1,3.7,0.4,7.6-1.2c1.7-0.6,3.2-1,3.2-0.7c0,0.3-0.7,0.8-1.7,1.2l-1.7,0.6l2-0.3c2-0.3,2.3,0,1.4,1.4
	c-1.1,1.7-9.5,1.8-11.2,0.2c-1.1-1.1,0.1-2.9,2.4-3.8C50.3,358,51.6,357.8,53.4,358.5z" />
        <path d="M48,351.4c0.4,0.2,1,0.1,1.2-0.1c0.2-0.2-0.1-0.4-0.8-0.3C47.7,351,47.5,351.2,48,351.4z" />
        <path d="M83.6,111.8c-3.5,0.6-6.9,1.8-8.2,3.1c-1,1-1.1,1.2-1.1,3.4c0,1.3-0.1,3.7-0.1,5.2c-0.1,3.3,0.5,5,2.7,7.4
	c2.8,3.1,5.7,4.6,10.3,5.3c7.2,1.1,13.6,0.5,18.2-1.7c3.1-1.5,5-3.2,6.3-5.6c0.9-1.6,1-2.1,1-4.7c0-5.5-0.3-7.1-1-8
	C108.7,112.9,92.5,110.4,83.6,111.8z M91.5,112.4c0,0.4-1.5,0.6-3.9,0.4c-2-0.1-2.4-0.1-2.8,0.4c-0.5,0.6-3.9,1.6-4.2,1.3
	c-0.1-0.1-0.8,0.2-1.4,0.6c-1,0.6-1.2,0.9-1.2,1.7c0,0.7,0.3,1.1,1.6,1.9c2.3,1.4,5.3,2.6,8,3.2c2.9,0.6,9.3,0.7,12.1,0.1
	c2.7-0.5,7.1-2,8.9-3.1c2.9-1.8,1.6-2.7-6.7-4.9c-3.5-0.9-3.7-1.2-0.4-0.6c2.6,0.5,7.6,2.4,8.7,3.2c0.5,0.4,0.9,1,0.9,1.4
	c0,1.3-4.6,3.6-10.3,5.1c-1.6,0.4-3.1,0.5-7,0.5c-4.5,0-5.3-0.1-8.2-0.8c-5.4-1.3-9.8-4-9.8-5.8c0-1.8,3.9-3.9,8.1-4.5
	C86.4,112.1,91.5,112.1,91.5,112.4z M96.6,112.8c1.1,0.4,0.9,1.1-0.3,0.9c-2.4-0.4-3.4-0.7-3.4-1.1c0-0.4,0.3-0.4,1.5-0.3
	C95.3,112.4,96.3,112.6,96.6,112.8z M87.9,113.3c1.1,0.4,1.9,1.3,1.4,1.7c-0.8,0.6-4.1-1-3.5-1.7C86.1,112.9,86.8,112.9,87.9,113.3z
	 M93.3,113.9c-0.1,0.8,0.1,1.1,1.2,1.6c0.7,0.3,1.8,0.6,2.8,0.6c1.7,0,1.7-0.1,1.1-0.9c-0.3-0.4-0.3-0.7,0.1-1
	c0.7-0.6,1.4-0.4,2.3,0.7c1,1.2,2.1,1.6,5.1,1.9c2.7,0.2,3.1,0.8,1.3,1.9c-1.7,1.1-6.4,2.4-10,2.8c-3.4,0.4-7.7,0.1-11-0.8
	c-1.7-0.4-2-0.6-2-1.2c0-0.5-0.4-0.9-1.5-1.3c-1.3-0.6-1.4-0.6-0.4-0.4c2.5,0.5,5.2-0.2,5.1-1.2c-0.1-0.4,0.2-0.6,1.3-0.8
	c1.2-0.2,1.4-0.4,1.4-1c0-0.5,0.3-0.9,0.9-1.1C92.1,113.1,93.4,113.4,93.3,113.9z M96.9,114.6c1.2,0.6,1.1,1.3-0.3,1
	c-1.4-0.3-2.6-0.8-2.6-1.1C94,113.7,95.3,113.8,96.9,114.6z M86.4,115.5c1.9,1.3-0.8,2.4-3.4,1.3c-1.3-0.5-1.4-1.1-0.3-1.7
	C83.7,114.6,85.4,114.8,86.4,115.5z M103.9,115.1c0.4,0.1,0.8,0.3,0.8,0.5c0,0.5-1.3,0.7-2.2,0.2
	C101.1,115.1,101.8,114.7,103.9,115.1z M81.6,116.5c0.1,0.5,0,0.7-0.4,0.7c-0.3,0-1,0.1-1.4,0.2c-1.2,0.3-1.1-0.5,0.1-1.2
	C81.1,115.5,81.4,115.6,81.6,116.5z M82.3,118.2c0.9,0.4,1.5,1.3,0.9,1.3c-0.7,0-3.1-1.2-2.9-1.4C80.5,117.7,81,117.7,82.3,118.2z
	 M82,123.1c4.4,1.7,10.7,2,18.2,1.1c2.5-0.3,6.7-1.6,9.1-2.9c1.3-0.7,1.4-0.7,1.7-0.3c0.4,0.8,0.3,4.6-0.2,6
	c-0.4,1.1-0.7,1.3-2.6,2.2c-3.1,1.3-7.7,1.9-14,1.9c-6.2,0-10.2-0.6-14-2c-3.7-1.4-4.2-1.8-4.6-3.1c-0.1-0.6-0.2-1.2-0.1-1.3
	c0.1-0.1,1.8,0.5,3.7,1.3c4.2,1.6,7.6,2.4,13.2,2.7c6.1,0.4,13.4-0.5,15.6-2c0.8-0.5,0.8-0.6,0.1-0.4c-6.1,1.7-5.5,1.7-12.3,1.7
	c-8.8,0-11.9-0.6-18.7-3.6c-1.6-0.7-1.7-0.7-1.6-2.1c0.1-2.4,0.3-2.4,2.4-1.2C78.9,121.7,80.8,122.6,82,123.1z M79,129.4
	c2.5,1,7.3,2.1,11.2,2.4c4.4,0.4,10.1,0,14.7-1c1.8-0.4,3.6-0.8,3.9-0.9c0.7-0.1,0.7-0.1-0.1,0.7c-1.2,1.3-3.5,2.6-5.7,3.5
	c-7.6,2.9-18.7,1.8-23.6-2.4c-1.8-1.5-3-3-2.5-3C77.2,128.7,78.1,129,79,129.4z" />
        <path d="M89,116.4c-0.3,0.1-0.4,0.5-0.4,0.9c0.1,0.6,0.3,0.7,1.8,0.8c1.2,0.1,1.8-0.1,2.2-0.4C93.6,116.7,90.5,115.6,89,116.4z
	 M91.2,116.7c1.3,0.4,1.2,0.8-0.4,1c-1.7,0.2-2.5-0.3-1.5-0.9C90.2,116.3,90.1,116.3,91.2,116.7z" />
        <path
                d="M101.4,116.9c0,0.1,0.2,0.3,0.4,0.3c0.2,0,0.3-0.1,0.1-0.3c-0.1-0.2-0.3-0.3-0.4-0.3C101.5,116.7,101.4,116.8,101.4,116.9z" />
        <path
                d="M106.5,118.1c0,0.1,0.2,0.3,0.4,0.3c0.2,0,0.4-0.1,0.4-0.3c0-0.2-0.1-0.3-0.4-0.3C106.7,117.8,106.5,117.9,106.5,118.1z" />
        <path
                d="M87.4,118.3c0,0.1,0.2,0.3,0.4,0.3c0.2,0,0.4-0.1,0.4-0.3c0-0.2-0.1-0.3-0.4-0.3C87.6,118.1,87.4,118.2,87.4,118.3z" />
        <path
                d="M94.3,118.4c0.1,0.2,0.6,0.2,1,0.1c0.4-0.1,1,0.1,1.3,0.3c0.7,0.5,1.1,0.3,0.5-0.3C96.5,118,93.9,117.9,94.3,118.4z" />
        <path d="M98.7,118.3c-0.6,0.4-0.2,1.2,0.6,1.6c0.8,0.4,1,0.4,2,0c1.3-0.5,1.4-0.8,0.6-1.4C101.3,118.1,99.1,117.9,98.7,118.3z
	 M101.1,118.7c0.6,0.3,0.7,0.4,0.3,0.6c-1,0.4-2.5,0-2-0.6C99.7,118.3,100.1,118.3,101.1,118.7z" />
        <path
                d="M95.3,119.2c-0.1,0.1,0,0.3,0.1,0.3c0.2,0,0.4-0.1,0.4-0.3c0-0.2-0.1-0.3-0.1-0.3C95.6,118.9,95.4,119,95.3,119.2z" />
        <path
                d="M90.1,119.4c-0.3,0.1-0.5,0.3-0.5,0.5c0,0.3,0.4,0.3,1.8,0.1c1-0.1,1.7-0.3,1.7-0.4C92.9,119.3,90.6,119.2,90.1,119.4z" />
        <path
                d="M97.7,120.6c0,0.1,0.2,0.3,0.4,0.3c0.2,0,0.3-0.1,0.1-0.3c-0.1-0.2-0.3-0.3-0.4-0.3C97.8,120.3,97.7,120.4,97.7,120.6z" />
        <path d="M83.2,115.5c0.1,0.1,0.8,0.3,1.5,0.4c1.6,0.1,1.2-0.2-0.5-0.5C83.4,115.3,83,115.3,83.2,115.5z" />
        <path d="M76.4,121.6c0,0.3,4.8,2.4,5,2.2c0.2-0.1-4.3-2.4-4.7-2.4C76.5,121.4,76.4,121.5,76.4,121.6z" />
        <path
                d="M109.4,122.2c-0.1,0.1-0.3,0.3-0.3,0.5s0.2,0.1,0.4-0.1c0.2-0.2,0.3-0.4,0.3-0.5C109.7,122,109.5,122.1,109.4,122.2z" />
        <path d="M76.4,122.8c0,0.4,0.9,0.8,3.3,1.7c3,1.1,4,1.4,4,1.1c0-0.1-0.7-0.4-1.6-0.7c-0.9-0.3-2.5-0.9-3.7-1.5
	C77.3,123,76.4,122.7,76.4,122.8z" />
        <path
                d="M107.3,123.1c0,0.1,0.2,0.2,0.4,0.1c0.2-0.1,0.4-0.2,0.4-0.3c0-0.1-0.1-0.1-0.4-0.1C107.4,122.8,107.3,123,107.3,123.1z" />
        <path
                d="M109.7,123.9c-0.1,0.1-0.3,0.3-0.3,0.5s0.2,0.1,0.4-0.1c0.2-0.2,0.3-0.4,0.3-0.5C110.1,123.7,109.8,123.8,109.7,123.9z" />
        <path d="M100.2,125.3c0.3,0.1,0.6,0.1,0.7,0c0.1-0.1-0.1-0.2-0.5-0.1C100,125.1,99.9,125.2,100.2,125.3z" />
        <path
                d="M90.2,125.6c0.1,0.1,1.5,0.3,3.2,0.3c1.7,0,2.9-0.1,2.9-0.3s-1.3-0.3-3.2-0.3C91.1,125.4,90,125.5,90.2,125.6z" />
        <path d="M97.6,125.5c0.3,0.1,0.6,0.1,0.7,0c0.1-0.1-0.1-0.2-0.5-0.1C97.5,125.4,97.3,125.5,97.6,125.5z" />
        <path
                d="M109.7,125.6c-0.1,0.1,0,0.3,0.1,0.3c0.2,0,0.4-0.1,0.4-0.3c0-0.2-0.1-0.3-0.1-0.3C109.9,125.4,109.8,125.5,109.7,125.6z" />
        <path d="M76.4,126.1c0,0.4,1.4,1.3,3.3,2.1c2.8,1.2,6.5,1.9,10.5,2c4.2,0.1,4,0-1.1-0.5c-5.6-0.6-8.1-1.4-11.8-3.4
	C76.8,126.1,76.4,126,76.4,126.1z" />
        <path d="M107.3,128.1c-2.7,1-7.1,1.8-10,1.8c-1.1,0-2.2,0.1-2.5,0.3c-0.8,0.4,6.2,0.1,9-0.5c2.4-0.4,5.5-1.6,5.9-2.1
	C110.1,127.1,109.8,127.1,107.3,128.1z" />
        <path d="M79.7,130.5c0,0.3,1.9,2.4,2.1,2.3c0.2-0.2-1.4-2.5-1.8-2.5C79.8,130.4,79.7,130.5,79.7,130.5z" />
        <path d="M105.3,132.1c-0.8,0.6-1.3,1.1-1.2,1.1c0.5,0,2.7-1.4,2.9-1.9C107.4,130.7,106.8,130.9,105.3,132.1z" />
        <path
                d="M81.9,131.4c0,0.4,2.9,2.5,4.2,3c2.2,0.9,2.1,0.4-0.2-0.7c-1.1-0.5-2.3-1.3-2.7-1.7C82.4,131.3,81.9,131,81.9,131.4z" />
        <path
                d="M272.1,139.7c0.7,0,0.8-0.4,0.7-1.7c-0.2-1.9-0.2-1.9,4.4-3.4c3.4-1.2,6.2-3.6,6.2-5.4c0-2-1.3-2.6-3.8-2l-2.1,0.5l1-1.2
	c3.2-3.7,0.8-7.3-3.5-5.1c-1.4,0.7-2.3,1.7-3.3,4c-1.6,3.4-1.8,4.9-0.6,5.9c0.9,0.7,1.2,3,0.4,3c-0.3,0-0.8-0.8-1.1-1.7
	c-1.3-3.7-1.3-4.6-0.3-6.2c2-3.2,0.8-11.1-1.9-12.3c-2-0.9-4.3-0.6-5.5,0.7c-0.8,0.9-1.2,1.9-1.2,3.7c0,3,1.3,5.2,4.3,7.7
	c1.3,1,2.3,2.2,2.3,2.6c0,0.6-0.5,0.4-1.9-0.9c-1-1-3-2.3-4.4-2.9c-2.3-1.1-2.5-1.1-3.4-0.3c-0.8,0.7-0.9,1-0.2,2.3
	c0.4,0.8,0.7,2.3,0.7,3.4c-0.1,1.6,0.2,2.2,1.5,3.3c1.7,1.4,4.7,2.3,7.9,2.3c1.6,0,2.1,0.2,2.6,1.1c0.4,0.6,0.7,1.5,0.7,1.8" />
        <path d="M266.8,114.8c1.7,0.7,2.8,3.8,2.7,7.5l-0.1,3.3l-0.7-4c-0.9-5.1-1.6-5.8-1-1.1c0.2,1.9,0.2,3.5,0.1,3.5
	c-0.5,0-2.7-3.2-3.5-5c-0.7-1.5-0.7-1.5-0.8-0.5c0,0.6,0.6,2.2,1.4,3.4c1.8,2.7,1.5,3.2-0.4,0.8c-1.9-2.3-2.4-4.6-1.3-6.7
	C264,114.3,265,114,266.8,114.8z" />
        <path d="M278.3,123.1c0.1,0.8-0.5,1.9-1.9,3.4c-1.1,1.2-2.1,2.1-2.3,1.9c-0.2-0.1,0.3-1.3,1.1-2.6c0.9-1.3,1.2-2.3,0.8-2.2
	c-0.3,0.1-1.5,1.5-2.4,3.1c-1.5,2.6-1.8,2.8-1.8,1.6c0-1.6,1.6-4.7,3-5.9C276.2,121.3,278,121.7,278.3,123.1z" />
        <path d="M262.9,126.6c1.1,0.6,1.6,1.1,1.2,1.1c-0.4,0-0.1,0.4,0.7,0.7c0.9,0.4,1.5,0.8,1.3,0.9c-0.5,0.5-5.1-0.8-6.3-1.8
	C257,125.4,259.4,124.6,262.9,126.6z" />
        <path d="M281.6,128.4c1,1.1-0.3,2.8-3,3.9c-2.8,1.1-3,1.2-3,0.6c0-0.2,1-1,2.2-1.7c1.2-0.7,2.1-1.3,1.9-1.5
	c-0.2-0.1-1.6,0.5-3.1,1.4c-1.6,0.9-3,1.6-3.1,1.4c-0.4-0.3,2.7-2.9,4.6-3.9C280.1,127.5,280.8,127.5,281.6,128.4z" />
        <path d="M266.3,131.2c0.9,0.4,1.6,0.9,1.6,1.2s-0.3,0.3-1,0c-0.6-0.2-1.9-0.5-2.9-0.4l-1.8,0l2.1,0.5c2.8,0.7,3.4,1.8,0.8,1.4
	c-2.8-0.5-5.1-1.7-5.3-2.9c-0.2-1.1-0.1-1.1,2.3-0.8C263.5,130.3,265.4,130.8,266.3,131.2z" />
        <path d="M229.6,199.3c0.1,1.1,0.7,2.7,1.4,3.7c1,1.4,1.1,2,0.5,2.7c-1,1,0.8,5.2,3,7.3c1.3,1.2,1.3,1.3-0.2,1.5
	c-0.9,0.1-2.5,0.6-3.5,1c-1.8,0.8-1.8,1-0.9,2.7c0.9,1.6,5.1,4.8,9.5,7.1l1.6,0.9l-2.7,0.2c-3.2,0.2-5,1.5-4.2,3.1
	c2.1,4.5,12.4,10.1,15.6,8.5c1.5-0.7,1.6-0.7,5.8,6.5c3.8,6.5,5.7,8.7,6.3,7.2c0.1-0.3-1.7-3.6-4.1-7.4c-4-6.5-4.2-6.9-3.4-8.1
	c3.5-4.9,4.2-11,2.1-16.8c-1.3-3.7-1.3-3.7-3-2.9c-0.9,0.4-1.7,0.6-1.7,0.2c0.2-3.9-0.1-6.5-1.2-8.2c-1.3-2.2-1.9-2.2-4.2,0
	c-1.1,0.9-1.2,0.9-1.5-0.8c-0.2-1-1.5-4.6-3.1-8.1c-2.5-5.4-2.9-6-3.9-5.6c-0.6,0.3-1.3,1.1-1.7,2c-0.5,1.3-0.9,1.4-3.2,1.2
	C229.7,196.9,229.4,197.1,229.6,199.3z M234.5,200.5c2.1,2.1,2.8,4.6,1.1,3.5c-0.8-0.5-0.9-0.4-0.5,0.6c1.2,2.7-1.6-0.1-2.9-2.8
	C230.6,198.2,231.7,197.6,234.5,200.5z M239.7,198.3c0.5,1.1,0.6,2.8,0.1,4.2l-0.7,2.4l-1.1-2c-1-2.1-0.8-5.4,0.3-5.9
	C238.7,196.7,239.3,197.4,239.7,198.3z M235.1,207.8c0.7,0.4,1.8,1.7,2.7,2.9c1.2,1.7,1.3,2.3,0.5,2.7c-1.1,0.5-1.6,0.1-3.9-3.3
	C232.5,207.5,232.9,206.2,235.1,207.8z M243,207.6c0.7,3,0.6,6.7-0.2,5.1c-0.5-0.9-0.6-0.9-1.2,0.2c-0.6,1.2-0.7,1.1-1.3-1.2
	c-0.8-2.6,0.1-6.6,1.4-6.5C242.1,205.2,242.7,206.3,243,207.6z M233.6,217.4c0.2,0.4,0.7,0.2,1.3-0.3c2.3-2.1,7.2-0.6,9.5,2.9
	c0.7,1.1,0.9,1.8,0.5,1.4c-0.6-0.4-0.8-0.4-0.9,0.4c-0.1,0.6-1,0.3-2.6-1.1c-1.4-1.2-2.9-2.2-3.4-2.2c-1.3-0.1-0.7,0.8,1.1,1.7
	c0.8,0.4,2.1,1.4,2.9,2c2.3,2.2,0.4,2-4.4-0.4c-4.3-2.2-6.3-4.2-5-4.8C233.1,216.8,233.4,217,233.6,217.4z M246.8,210.9
	c0.3,0.2,0.1,1.7-0.6,3.3c-0.9,2.3-1.3,2.8-1.7,2c-0.3-0.5,0-2,0.5-3.2C246,210.4,246.1,210.4,246.8,210.9z M249.3,210.4
	c0.9,2-0.5,9.8-1.9,10.4c-1.4,0.7-1.6-2.6-0.4-6.3C248.2,210.5,248.8,209.4,249.3,210.4z M254.8,220.4c1.2,2.6,1.1,7.3-0.3,10.4
	c-1.5,3.6-2.1,2.2-1.7-4.3c0.1-2.8,0.2-5.1,0-5.2c-0.5-0.1-1.2,5.1-1.4,8.8l0,2.9l-1.4-2.5c-1.7-2.9-1.4-5.3,0.9-9.1
	C252.8,218.4,253.7,218.1,254.8,220.4z M240.5,228.1c3.3-0.2,5.5,0.8,7.1,3.3c1.4,2.2,1.4,2.2-0.3,1.2c-1.6-0.9-1.6-1-0.7,0.1
	c1.6,1.8,0.6,1.7-2.5-0.4c-3.6-2.4-4.2-1.9-0.8,0.7c3.1,2.2,3.7,3.5,1.2,2.4c-2.5-1.1-6.4-4.2-7.1-5.5
	C236.7,228.6,237.3,228.3,240.5,228.1z" />
</svg>