<?xml version="1.0" encoding="utf-8"?>

<svg version="1.1" xmlns="http://www.w3.org/2000/svg" viewBox="0 0 60 32">
	<g>
		<path d="M15.2,5.2C8.7,3.7,2.1,8.4,0.4,15.7s2.3,14.4,8.8,15.9S22.3,28.4,24,21.1S21.7,6.6,15.2,5.2 M20.2,16.4
		c-0.3,1.4-1,2.9-1.9,4.5l-0.2,0.4c0,0.1-0.1,0.1-0.1,0.2l-0.1,0.1l0,0c0,0,0,0.1-0.1,0.2c0,0.1,0,0.1-0.1,0.2l-0.2,0.4
		c-0.9,1.5-1.9,2.8-3,3.8s-2.1,1.8-3.2,2.3c-1,0.5-2,0.8-3,0.8c-0.9,0-1.7-0.1-2.4-0.5s-1.2-1-1.6-1.8c-0.4-0.9-0.7-1.9-0.7-3
		c-0.1-1.2,0.1-2.5,0.5-3.9s1-3,1.9-4.5l0.3-0.5l0,0l0.3-0.5c0.9-1.6,1.9-2.9,3-3.9s2.1-1.8,3.2-2.4l0,0c0.5-0.3,1.1-0.4,1.7-0.5
		c2.5-0.4,3.4,0,3.1,0.8c-0.3,0.7-6,10.9-6,10.9c2.6-2.2,6-9.7,6.5-10.5c0.3-0.5,1,0,1.7,0.7c0,0,0,0.1,0.1,0.1
		c0.4,0.8,0.7,1.8,0.7,3S20.6,14.9,20.2,16.4" />
		<path d="M59.7,19.2c0-0.1-0.1-0.3-0.3-0.3c-0.2-0.1-0.3-0.1-0.5-0.1c-0.1,0-0.2,0.1-0.3,0.3c-0.3,0.7-0.8,1.4-1.3,2.1
		s-1.1,1.5-1.8,2.3c0.1-0.6,0.2-1.2,0.2-1.8s-0.2-1.3-0.4-2.1c-0.2-0.7-0.6-1.5-1.1-2.4c-0.5-0.8-1.1-1.7-1.9-2.6l0.1-0.2
		c0.3-0.4,0.5-0.8,0.6-1.2c0.2-0.4,0.2-0.8,0.2-1.1s-0.1-0.6-0.4-0.8c-0.2-0.2-0.6-0.3-1.1-0.3s-0.9,0.1-1.2,0.3S50,11.7,49.8,12
		s-0.3,0.5-0.4,0.8c-0.1,0.3-0.1,0.5-0.1,0.7c0,0.4,0.1,0.8,0.2,1.2c0.1,0.4,0.3,0.7,0.5,1.1c-0.1,0.3-0.3,0.5-0.4,0.8
		s-0.3,0.5-0.4,0.7c-0.1,0.2-0.3,0.5-0.4,0.8c-0.1,0.3-0.3,0.5-0.4,0.8c0,0-0.1,0.1-0.1,0.2c-0.1,0.3-0.3,0.8-0.6,1.3
		s-0.6,1.1-1,1.7s-0.7,1.2-1.1,1.7c-0.4,0.6-0.8,1.1-1.2,1.6s-0.7,0.9-1,1.2s-0.6,0.5-0.8,0.5c-0.4,0-0.5-0.2-0.4-0.7
		s0.3-1.2,0.6-2.1s0.8-1.9,1.3-3c0.6-1.2,1.1-2.4,1.7-3.6c0.6-1.3,1.2-2.5,1.8-3.8s1.1-2.4,1.5-3.5c1,0,2-0.1,3-0.2s1.8-0.3,2.6-0.4
		s1.5-0.4,2-0.6c0.6-0.2,1-0.5,1.3-0.7c0.2-0.2,0.3-0.5,0.3-0.7c-0.1-0.3-0.2-0.5-0.4-0.6C57.7,7,57.5,7,57.4,7
		c-0.2,0-0.3,0.2-0.3,0.5S56.9,8,56.4,8.2c-0.4,0.2-1,0.3-1.7,0.4s-1.5,0.2-2.4,0.2h-2.7c0.2-0.6,0.3-1.1,0.4-1.6
		c0.1-0.5,0.1-0.9,0-1.1c-0.2-0.6-0.5-1-0.9-1.2s-0.9-0.3-1.3-0.3s-0.7,0.1-1,0.3c-0.3,0.2-0.3,0.3-0.2,0.4s0.1,0.4-0.1,1
		c-0.2,0.6-0.4,1.3-0.8,2.2c-1.2-0.1-2.4-0.2-3.6-0.2s-2.2,0-3.1,0.2c-0.9,0.2-1.7,0.4-2.2,0.9s-0.9,1.1-1,1.9c0,0.5,0,0.9,0.1,1.3
		c0.1,0.3,0.2,0.5,0.4,0.6s0.3,0.1,0.5,0c0.1-0.1,0.2-0.3,0.2-0.6c0-0.5,0.2-0.8,0.7-1.1c0.4-0.3,1-0.5,1.7-0.6s1.5-0.2,2.5-0.3h3
		c-0.5,1.2-1.1,2.6-1.7,4c-0.6,1.4-1.2,2.8-1.7,4.2c-0.2,0.5-0.4,1-0.6,1.5c-0.1,0.1-0.1,0.3-0.2,0.4c-0.3,0.5-0.6,1.1-1,1.7
		c-0.3,0.6-0.7,1.2-1.1,1.7c-0.4,0.6-0.8,1.1-1.2,1.6s-0.7,0.9-1.1,1.2s-0.6,0.5-0.8,0.5c-0.5,0-0.7-0.1-0.6-0.6s0.2-1,0.6-1.7
		c0.3-0.7,0.7-1.5,1.2-2.4s1-1.8,1.4-2.7s0.8-1.8,1-2.6s0.3-1.5,0.1-2.1s-0.5-1-0.9-1.2s-0.9-0.3-1.3-0.3s-0.7,0.1-1,0.3
		s-0.3,0.3-0.2,0.4c0.1,0.1,0.2,0.3,0.1,0.7c-0.1,0.3-0.2,0.7-0.4,1.2c-0.2,0.5-0.4,1-0.7,1.6s-0.5,1.2-0.8,1.9
		c-0.3,0.5-0.5,1-0.8,1.6s-0.6,1.2-0.9,1.8c-0.3,0.6-0.6,1.2-1,1.7c-0.3,0.5-0.7,1-1,1.4s-0.6,0.7-0.9,0.8c-0.3,0.2-0.6,0.2-0.9,0.1
		c-0.4-0.1-0.6-0.4-0.8-0.9c-0.1-0.5-0.2-1-0.2-1.6s0.1-1.3,0.3-1.9c0.2-0.7,0.4-1.3,0.7-1.9c0.4-0.9,0.8-1.8,1.3-2.5
		c0.4-0.8,0.8-1.4,1.2-1.9s0.8-0.9,1.1-1.2S32.8,15,33,15s0.4,0.1,0.5,0.4c-0.1,0.1-0.3,0.2-0.3,0.4c-0.1,0.1-0.1,0.3-0.1,0.5
		c0,0.3,0.1,0.5,0.3,0.6c0.2,0.2,0.4,0.2,0.7,0.2s0.5-0.1,0.6-0.3c0.2-0.2,0.3-0.5,0.3-0.9s-0.1-0.7-0.2-1c-0.2-0.3-0.4-0.5-0.6-0.7
		c-0.2-0.2-0.5-0.3-0.8-0.3c-0.3-0.1-0.5-0.1-0.8-0.1c-0.7,0-1.4,0.1-2.1,0.3s-1.4,0.6-2,1.2c-0.7,0.6-1.3,1.3-1.9,2.1
		c-0.6,0.9-1.1,1.9-1.6,3.2c-0.3,0.7-0.5,1.4-0.7,2.2s-0.2,1.6-0.2,2.3c0.1,0.7,0.3,1.4,0.6,2c0.3,0.6,0.9,1.1,1.7,1.4
		c0.7,0.3,1.3,0.4,1.8,0.3c0.6-0.1,1.1-0.2,1.6-0.5s1-0.7,1.4-1.2s0.8-1.1,1.2-1.7c-0.1,1,0,1.9,0.4,2.5c0.4,0.7,1,1,1.7,0.9
		c0.5,0,1-0.2,1.5-0.5c0.5-0.4,1-0.8,1.6-1.4c0.5-0.6,1-1.2,1.5-1.9c0.1-0.2,0.2-0.3,0.3-0.5c0,0.2-0.1,0.4-0.1,0.5
		c-0.1,0.5-0.1,1,0,1.5s0.2,0.9,0.4,1.2s0.4,0.6,0.7,0.8s0.6,0.3,1,0.2c0.5,0,1-0.2,1.5-0.5c0.5-0.4,1-0.8,1.6-1.4
		c0.5-0.6,1-1.2,1.5-1.9s0.9-1.4,1.3-2c0.4-0.7,0.8-1.3,1.1-1.9c0.3-0.5,0.5-0.9,0.6-1.3l0.1-0.1c0.2-0.4,0.4-0.8,0.7-1.3
		s0.5-0.9,0.7-1.3c0.6,1.3,1,2.5,1.3,3.5s0.3,2,0.3,2.7c0,0.8-0.2,1.5-0.4,2c-0.2,0.6-0.5,1-0.8,1.4c-0.3,0.3-0.6,0.6-0.9,0.8
		c-0.3,0.2-0.5,0.2-0.7,0.2c-0.4,0-0.8-0.2-1-0.4c-0.3-0.3-0.4-0.6-0.5-1s0-0.8,0.1-1.2s0.3-0.8,0.5-1.1c0.1,0.2,0.2,0.3,0.3,0.4
		c0.2,0.1,0.3,0.2,0.5,0.2s0.5-0.1,0.7-0.3s0.3-0.4,0.3-0.7c0-0.2-0.1-0.4-0.3-0.6s-0.4-0.3-0.6-0.3s-0.5,0-0.8,0.2
		c-0.3,0.1-0.7,0.4-1.1,0.8c-0.3,0.3-0.5,0.7-0.6,1.3s-0.1,1.1,0.1,1.7c0.1,0.6,0.4,1,0.9,1.5s1,0.6,1.9,0.6c0.3,0,0.6-0.1,1-0.2
		s0.8-0.3,1.3-0.5l0,0c0.7-0.3,1.4-0.7,2-1.2s1.2-1,1.7-1.6c0.8-0.9,1.5-1.7,2.1-2.6s1.2-1.8,1.7-2.8C59.7,19.5,59.7,19.4,59.7,19.2
		" />
		<path d="M22.3,0.5C22.4,0.8,24.6,3.8,24,4c0,0-1.9-3.1-2-3.3c-0.2-0.2-0.3-0.2-0.6,0.5c-0.1,0.2-0.1,0.4-0.1,0.5l0,0
		c0,0.4,0,0.8,0.1,1.3s0.3,1,0.6,1.5l0.1,0.2l0,0l0.1,0.2c0.3,0.5,0.6,1,0.9,1.3s0.7,0.6,1,0.8s0.7,0.3,1,0.3s0.6,0,0.8-0.1
		c0.2-0.1,0.4-0.3,0.5-0.6c0.1-0.3,0.2-0.6,0.3-1c0-0.4,0-0.8-0.1-1.3s-0.3-1-0.5-1.5L26,2.7V2.6l0,0V2.5l-0.1-0.1
		c-0.3-0.5-0.6-0.9-0.9-1.3c-0.3-0.3-0.7-0.6-1-0.8S23.4,0,23.1,0l0,0C22.4,0.2,22.2,0.3,22.3,0.5" />
		<path d="M29,5.1c-0.2,0-0.4,0.1-0.5,0.2l0,0c-0.3,0.2-0.6,0.5-0.9,0.9S27,7.1,26.8,7.6l-0.1,0.2l0,0L26.6,8
		c-0.2,0.5-0.4,1.1-0.4,1.5c-0.1,0.5,0,0.9,0,1.3c0.1,0.4,0.2,0.7,0.4,0.9c0.2,0.3,0.4,0.4,0.6,0.5s0.5,0.1,0.8,0.1
		c0.3-0.1,0.6-0.2,0.9-0.4s0.6-0.5,0.9-0.9s0.6-0.8,0.8-1.4l0.1-0.1V9.4l0,0V9.3l0.1-0.1c0.2-0.5,0.3-1,0.4-1.5V6.4
		C31.1,6,31,5.7,30.8,5.5l0,0c-0.2-0.2-0.5-0.3-0.6-0.1c-0.1,0.3-1.1,3.9-1.6,3.6c0,0,1.2-3.5,1.2-3.7s0-0.3-0.2-0.3
		C29.5,5,29.3,5,29,5.1" />
	</g>
</svg>