<?xml version="1.0" encoding="utf-8"?>

<svg version="1.1" xmlns="http://www.w3.org/2000/svg" preserveAspectRatio="none" height="100%" width="100%"
	viewBox="50 50 413 413">
	<path fill='#f3e3c6' stroke="none" d="M53.602791,100.840446 
	C65.617073,108.947006 78.613464,112.212303 92.438942,110.836861 
	C104.672699,109.619766 116.295105,105.418205 127.957520,101.551292 
	C140.358582,97.439484 152.596298,92.820587 165.382828,89.847122 
	C183.825684,85.558296 201.160263,87.218475 217.828140,96.844254 
	C227.850449,102.632172 237.887192,108.712852 249.780197,110.444763 
	C256.586334,111.435905 263.426544,111.442574 270.121918,110.789215 
	C291.195740,108.732758 309.886047,98.824722 329.500549,91.942276 
	C348.241516,85.366333 365.980011,85.703575 382.506042,98.740097 
	C390.179840,104.793533 399.848022,107.227852 409.456757,108.984268 
	C426.965240,112.184692 443.448639,108.832260 459.563354,100.913574 
	C462.632843,101.083336 462.857178,103.152580 463.056946,105.175835 
	C463.269928,107.332680 463.218140,109.503166 463.218231,111.668800 
	C463.222198,212.795029 463.202972,313.921265 463.257782,415.047455 
	C463.262482,423.711823 461.957611,431.969208 457.652344,439.567841 
	C449.617065,453.749847 436.962250,460.178314 421.104065,461.128265 
	C419.108734,461.247803 417.106934,461.216675 415.107727,461.216827 
	C309.649902,461.224304 204.192062,461.218750 98.734238,461.226379 
	C87.536263,461.227173 76.868317,459.630219 67.626236,452.519073 
	C57.537296,444.756256 52.013493,434.591125 50.876072,421.981171 
	C50.711670,420.158508 50.784340,418.318054 50.784153,416.485443 
	C50.773735,314.692810 50.762695,212.900162 50.843689,111.107597 
	C50.846455,107.632248 49.555336,103.653099 53.602791,100.840446z" />

</svg>